<svg width="240" height="194" viewBox="0 0 240 194" fill="none" xmlns="http://www.w3.org/2000/svg">
<circle cx="120" cy="54.3306" r="54.3306" fill="url(#paint0_linear_6867_3203)"/>
<path d="M150.512 34.9753C149.802 34.2647 148.65 34.2647 147.94 34.9753L141.196 41.7187H129.095L119.999 46.1209L110.904 41.7188H98.8018L92.0584 34.9753C91.3478 34.2647 90.1966 34.2647 89.486 34.9753C88.7755 35.6858 88.7755 36.8371 89.486 37.5476L96.2294 44.2911V79.9199C96.2294 82.9395 98.6668 85.3772 101.687 85.3772H138.311C141.331 85.3772 143.769 82.9395 143.769 79.9199V44.2911L150.512 37.5477C151.223 36.8371 151.223 35.686 150.512 34.9753Z" fill="#033431"/>
<path d="M127.182 64.9567L123.347 64.3989L121.631 60.9241C121.02 59.6806 118.98 59.6806 118.369 60.9241L116.653 64.3989L112.818 64.9567C111.327 65.1729 110.732 67.0088 111.809 68.0584L114.585 70.764L113.93 74.5852C113.675 76.0689 115.238 77.2044 116.57 76.5021L120 74.6989L123.43 76.502C124.761 77.2028 126.325 76.0662 126.07 74.5851L125.415 70.7639L128.191 68.0583C129.269 67.0072 128.67 65.1726 127.182 64.9567ZM110.904 58.0907C110.904 58.8183 111.341 59.4732 112.032 59.7641C112.723 60.0553 113.487 59.9098 113.997 59.3639L120 53.3973L126.003 59.3639C126.536 59.9566 127.433 60.0319 127.967 59.7641C128.659 59.4732 129.095 58.8185 129.095 58.0907V41.7188H110.904V58.0907Z" fill="url(#paint1_linear_6867_3203)"/>
<path d="M121.819 34.9676C121.819 35.9731 121.005 36.7867 120 36.7867C118.994 36.7867 118.18 35.9731 118.18 34.9676V27.6912C118.18 26.6857 118.994 25.8721 120 25.8721C121.005 25.8721 121.819 26.6857 121.819 27.6912V34.9676Z" fill="#033431"/>
<path d="M104.633 26.0639C105.536 25.6163 106.625 25.9787 107.074 26.8776L110.712 34.154C111.162 35.0528 110.797 36.1454 109.899 36.5948C109.467 36.8103 108.967 36.8456 108.51 36.6931C108.052 36.5405 107.674 36.2126 107.458 35.7812L103.819 28.5048C103.37 27.6059 103.734 26.5134 104.633 26.0639Z" fill="#033431"/>
<path d="M132.925 26.8776C133.376 25.9787 134.465 25.6163 135.366 26.0639C136.265 26.5134 136.629 27.6059 136.18 28.5048L132.541 35.7812C132.094 36.6739 131.008 37.0453 130.101 36.5948C129.202 36.1454 128.838 35.0528 129.287 34.154L132.925 26.8776Z" fill="#033431"/>
<path d="M85.3375 152.151L81.5107 148.324C80.5746 148.581 79.6202 148.709 78.6474 148.709C76.8671 148.709 75.2427 148.296 73.7744 147.47C72.3061 146.626 71.1406 145.461 70.2779 143.974C69.4336 142.469 69.0115 140.78 69.0115 138.908C69.0115 137.036 69.4336 135.357 70.2779 133.87C71.1406 132.365 72.3061 131.199 73.7744 130.373C75.2427 129.529 76.8671 129.107 78.6474 129.107C80.4461 129.107 82.0797 129.529 83.548 130.373C85.0163 131.199 86.1727 132.356 87.017 133.842C87.8612 135.329 88.2834 137.018 88.2834 138.908C88.2834 140.744 87.8796 142.395 87.072 143.864C86.2644 145.332 85.154 146.488 83.7407 147.333L88.5862 152.151H85.3375ZM71.5719 138.908C71.5719 140.432 71.8747 141.771 72.4804 142.928C73.1045 144.084 73.9488 144.974 75.0133 145.598C76.0962 146.222 77.3076 146.534 78.6474 146.534C79.9873 146.534 81.1895 146.222 82.254 145.598C83.3369 144.974 84.1812 144.084 84.7869 142.928C85.411 141.771 85.723 140.432 85.723 138.908C85.723 137.366 85.411 136.027 84.7869 134.889C84.1812 133.732 83.3461 132.842 82.2816 132.218C81.217 131.594 80.0056 131.282 78.6474 131.282C77.2892 131.282 76.0778 131.594 75.0133 132.218C73.9488 132.842 73.1045 133.732 72.4804 134.889C71.8747 136.027 71.5719 137.366 71.5719 138.908ZM105.025 133.429V148.517H102.519V146.287C102.042 147.057 101.372 147.663 100.51 148.104C99.6654 148.526 98.7293 148.737 97.7015 148.737C96.5268 148.737 95.4714 148.498 94.5354 148.021C93.5993 147.525 92.856 146.791 92.3053 145.819C91.7731 144.846 91.5069 143.662 91.5069 142.267V133.429H93.9847V141.937C93.9847 143.423 94.361 144.57 95.1135 145.378C95.866 146.167 96.8939 146.562 98.197 146.562C99.5369 146.562 100.592 146.149 101.363 145.323C102.134 144.497 102.519 143.295 102.519 141.716V133.429H105.025ZM108.319 140.918C108.319 139.376 108.631 138.027 109.255 136.871C109.879 135.696 110.732 134.788 111.815 134.145C112.917 133.503 114.137 133.182 115.477 133.182C116.799 133.182 117.946 133.466 118.918 134.035C119.891 134.604 120.616 135.32 121.093 136.183V133.429H123.626V148.517H121.093V145.708C120.598 146.589 119.854 147.324 118.863 147.911C117.891 148.48 116.753 148.764 115.449 148.764C114.11 148.764 112.898 148.434 111.815 147.773C110.732 147.113 109.879 146.186 109.255 144.993C108.631 143.8 108.319 142.441 108.319 140.918ZM121.093 140.945C121.093 139.808 120.864 138.816 120.405 137.972C119.946 137.128 119.322 136.485 118.533 136.045C117.762 135.586 116.909 135.357 115.973 135.357C115.037 135.357 114.183 135.577 113.412 136.017C112.641 136.458 112.026 137.1 111.568 137.945C111.109 138.789 110.879 139.78 110.879 140.918C110.879 142.074 111.109 143.084 111.568 143.946C112.026 144.791 112.641 145.442 113.412 145.901C114.183 146.342 115.037 146.562 115.973 146.562C116.909 146.562 117.762 146.342 118.533 145.901C119.322 145.442 119.946 144.791 120.405 143.946C120.864 143.084 121.093 142.083 121.093 140.945ZM130.365 128.143V148.517H127.86V128.143H130.365ZM135.929 130.979C135.452 130.979 135.048 130.814 134.718 130.484C134.388 130.153 134.222 129.749 134.222 129.272C134.222 128.795 134.388 128.391 134.718 128.061C135.048 127.73 135.452 127.565 135.929 127.565C136.388 127.565 136.774 127.73 137.086 128.061C137.416 128.391 137.581 128.795 137.581 129.272C137.581 129.749 137.416 130.153 137.086 130.484C136.774 130.814 136.388 130.979 135.929 130.979ZM137.141 133.429V148.517H134.635V133.429H137.141ZM144.467 135.494V144.387C144.467 145.121 144.623 145.644 144.935 145.956C145.247 146.25 145.788 146.397 146.559 146.397H148.404V148.517H146.146C144.751 148.517 143.705 148.195 143.007 147.553C142.31 146.911 141.961 145.855 141.961 144.387V135.494H140.007V133.429H141.961V129.63H144.467V133.429H148.404V135.494H144.467ZM164.434 133.429L155.349 155.62H152.761L155.734 148.351L149.65 133.429H152.43L157.166 145.653L161.846 133.429H164.434ZM62.1286 170.944C62.1286 172.54 61.578 173.871 60.4768 174.936C59.3939 175.982 57.7328 176.505 55.4936 176.505H51.8044V184.517H49.2991V165.327H55.4936C57.6594 165.327 59.3021 165.85 60.4217 166.897C61.5597 167.943 62.1286 169.292 62.1286 170.944ZM55.4936 174.44C56.8885 174.44 57.9164 174.137 58.5771 173.532C59.2379 172.926 59.5682 172.063 59.5682 170.944C59.5682 168.576 58.21 167.392 55.4936 167.392H51.8044V174.44H55.4936ZM64.3064 176.918C64.3064 175.376 64.6184 174.027 65.2425 172.871C65.8665 171.696 66.72 170.788 67.8029 170.145C68.9041 169.503 70.1247 169.182 71.4646 169.182C72.7861 169.182 73.9332 169.466 74.906 170.035C75.8787 170.604 76.6037 171.32 77.0809 172.183V169.429H79.6138V184.517H77.0809V181.708C76.5854 182.589 75.842 183.324 74.8509 183.911C73.8781 184.48 72.7402 184.764 71.437 184.764C70.0972 184.764 68.8858 184.434 67.8029 183.773C66.72 183.113 65.8665 182.186 65.2425 180.993C64.6184 179.8 64.3064 178.441 64.3064 176.918ZM77.0809 176.945C77.0809 175.808 76.8515 174.816 76.3927 173.972C75.9338 173.128 75.3098 172.485 74.5205 172.045C73.7497 171.586 72.8962 171.357 71.9601 171.357C71.0241 171.357 70.1706 171.577 69.3997 172.017C68.6288 172.458 68.014 173.1 67.5551 173.945C67.0963 174.789 66.8668 175.78 66.8668 176.918C66.8668 178.074 67.0963 179.084 67.5551 179.946C68.014 180.791 68.6288 181.442 69.3997 181.901C70.1706 182.342 71.0241 182.562 71.9601 182.562C72.8962 182.562 73.7497 182.342 74.5205 181.901C75.3098 181.442 75.9338 180.791 76.3927 179.946C76.8515 179.084 77.0809 178.083 77.0809 176.945ZM82.9116 176.945C82.9116 175.385 83.2236 174.027 83.8476 172.871C84.4717 171.696 85.3343 170.788 86.4356 170.145C87.5552 169.503 88.8308 169.182 90.2624 169.182C92.1162 169.182 93.6396 169.631 94.8326 170.531C96.044 171.43 96.8424 172.678 97.2278 174.275H94.5298C94.2728 173.357 93.7681 172.632 93.0156 172.1C92.2814 171.568 91.3637 171.302 90.2624 171.302C88.8308 171.302 87.6745 171.797 86.7935 172.788C85.9125 173.761 85.472 175.147 85.472 176.945C85.472 178.763 85.9125 180.167 86.7935 181.158C87.6745 182.149 88.8308 182.644 90.2624 182.644C91.3637 182.644 92.2814 182.388 93.0156 181.874C93.7497 181.36 94.2545 180.626 94.5298 179.671H97.2278C96.8241 181.213 96.0165 182.452 94.8051 183.388C93.5937 184.306 92.0795 184.764 90.2624 184.764C88.8308 184.764 87.5552 184.443 86.4356 183.801C85.3343 183.158 84.4717 182.25 83.8476 181.075C83.2236 179.901 82.9116 178.524 82.9116 176.945ZM108.995 184.517L103.076 177.854V184.517H100.571V164.143H103.076V176.12L108.885 169.429H112.382L105.279 176.945L112.409 184.517H108.995ZM113.804 176.918C113.804 175.376 114.116 174.027 114.74 172.871C115.364 171.696 116.217 170.788 117.3 170.145C118.401 169.503 119.622 169.182 120.962 169.182C122.283 169.182 123.43 169.466 124.403 170.035C125.376 170.604 126.101 171.32 126.578 172.183V169.429H129.111V184.517H126.578V181.708C126.083 182.589 125.339 183.324 124.348 183.911C123.375 184.48 122.237 184.764 120.934 184.764C119.594 184.764 118.383 184.434 117.3 183.773C116.217 183.113 115.364 182.186 114.74 180.993C114.116 179.8 113.804 178.441 113.804 176.918ZM126.578 176.945C126.578 175.808 126.349 174.816 125.89 173.972C125.431 173.128 124.807 172.485 124.018 172.045C123.247 171.586 122.393 171.357 121.457 171.357C120.521 171.357 119.668 171.577 118.897 172.017C118.126 172.458 117.511 173.1 117.052 173.945C116.593 174.789 116.364 175.78 116.364 176.918C116.364 178.074 116.593 179.084 117.052 179.946C117.511 180.791 118.126 181.442 118.897 181.901C119.668 182.342 120.521 182.562 121.457 182.562C122.393 182.562 123.247 182.342 124.018 181.901C124.807 181.442 125.431 180.791 125.89 179.946C126.349 179.084 126.578 178.083 126.578 176.945ZM139.567 169.182C140.87 169.182 142.008 169.466 142.981 170.035C143.972 170.604 144.706 171.32 145.183 172.183V169.429H147.716V184.847C147.716 186.224 147.423 187.444 146.835 188.509C146.248 189.592 145.404 190.436 144.302 191.042C143.219 191.647 141.953 191.95 140.503 191.95C138.521 191.95 136.869 191.482 135.547 190.546C134.226 189.61 133.446 188.334 133.207 186.719H135.685C135.96 187.637 136.529 188.371 137.392 188.922C138.255 189.491 139.292 189.775 140.503 189.775C141.88 189.775 142.999 189.344 143.862 188.481C144.743 187.618 145.183 186.407 145.183 184.847V181.681C144.688 182.562 143.954 183.296 142.981 183.883C142.008 184.471 140.87 184.764 139.567 184.764C138.227 184.764 137.006 184.434 135.905 183.773C134.822 183.113 133.969 182.186 133.345 180.993C132.721 179.8 132.409 178.441 132.409 176.918C132.409 175.376 132.721 174.027 133.345 172.871C133.969 171.696 134.822 170.788 135.905 170.145C137.006 169.503 138.227 169.182 139.567 169.182ZM145.183 176.945C145.183 175.808 144.954 174.816 144.495 173.972C144.036 173.128 143.412 172.485 142.623 172.045C141.852 171.586 140.999 171.357 140.062 171.357C139.126 171.357 138.273 171.577 137.502 172.017C136.731 172.458 136.116 173.1 135.657 173.945C135.199 174.789 134.969 175.78 134.969 176.918C134.969 178.074 135.199 179.084 135.657 179.946C136.116 180.791 136.731 181.442 137.502 181.901C138.273 182.342 139.126 182.562 140.062 182.562C140.999 182.562 141.852 182.342 142.623 181.901C143.412 181.442 144.036 180.791 144.495 179.946C144.954 179.084 145.183 178.083 145.183 176.945ZM153.244 166.979C152.767 166.979 152.363 166.814 152.033 166.484C151.702 166.153 151.537 165.749 151.537 165.272C151.537 164.795 151.702 164.391 152.033 164.061C152.363 163.73 152.767 163.565 153.244 163.565C153.703 163.565 154.088 163.73 154.4 164.061C154.731 164.391 154.896 164.795 154.896 165.272C154.896 165.749 154.731 166.153 154.4 166.484C154.088 166.814 153.703 166.979 153.244 166.979ZM154.455 169.429V184.517H151.95V169.429H154.455ZM166.076 169.154C167.912 169.154 169.398 169.714 170.536 170.834C171.674 171.935 172.243 173.532 172.243 175.624V184.517H169.765V175.982C169.765 174.477 169.389 173.33 168.637 172.54C167.884 171.733 166.856 171.329 165.553 171.329C164.232 171.329 163.176 171.742 162.387 172.568C161.616 173.394 161.231 174.596 161.231 176.175V184.517H158.725V169.429H161.231V171.577C161.726 170.806 162.396 170.209 163.24 169.787C164.103 169.365 165.048 169.154 166.076 169.154ZM182.558 169.182C183.861 169.182 184.999 169.466 185.972 170.035C186.963 170.604 187.697 171.32 188.174 172.183V169.429H190.707V184.847C190.707 186.224 190.413 187.444 189.826 188.509C189.239 189.592 188.394 190.436 187.293 191.042C186.21 191.647 184.944 191.95 183.494 191.95C181.512 191.95 179.86 191.482 178.538 190.546C177.217 189.61 176.437 188.334 176.198 186.719H178.676C178.951 187.637 179.52 188.371 180.383 188.922C181.245 189.491 182.282 189.775 183.494 189.775C184.87 189.775 185.99 189.344 186.853 188.481C187.734 187.618 188.174 186.407 188.174 184.847V181.681C187.679 182.562 186.944 183.296 185.972 183.883C184.999 184.471 183.861 184.764 182.558 184.764C181.218 184.764 179.997 184.434 178.896 183.773C177.813 183.113 176.96 182.186 176.336 180.993C175.712 179.8 175.4 178.441 175.4 176.918C175.4 175.376 175.712 174.027 176.336 172.871C176.96 171.696 177.813 170.788 178.896 170.145C179.997 169.503 181.218 169.182 182.558 169.182ZM188.174 176.945C188.174 175.808 187.945 174.816 187.486 173.972C187.027 173.128 186.403 172.485 185.614 172.045C184.843 171.586 183.989 171.357 183.053 171.357C182.117 171.357 181.264 171.577 180.493 172.017C179.722 172.458 179.107 173.1 178.648 173.945C178.189 174.789 177.96 175.78 177.96 176.918C177.96 178.074 178.189 179.084 178.648 179.946C179.107 180.791 179.722 181.442 180.493 181.901C181.264 182.342 182.117 182.562 183.053 182.562C183.989 182.562 184.843 182.342 185.614 181.901C186.403 181.442 187.027 180.791 187.486 179.946C187.945 179.084 188.174 178.083 188.174 176.945Z" fill="white"/>
<path d="M85.3375 152.151L81.5107 148.324C80.5746 148.581 79.6202 148.709 78.6474 148.709C76.8671 148.709 75.2427 148.296 73.7744 147.47C72.3061 146.626 71.1406 145.461 70.2779 143.974C69.4336 142.469 69.0115 140.78 69.0115 138.908C69.0115 137.036 69.4336 135.357 70.2779 133.87C71.1406 132.365 72.3061 131.199 73.7744 130.373C75.2427 129.529 76.8671 129.107 78.6474 129.107C80.4461 129.107 82.0797 129.529 83.548 130.373C85.0163 131.199 86.1727 132.356 87.017 133.842C87.8612 135.329 88.2834 137.018 88.2834 138.908C88.2834 140.744 87.8796 142.395 87.072 143.864C86.2644 145.332 85.154 146.488 83.7407 147.333L88.5862 152.151H85.3375ZM71.5719 138.908C71.5719 140.432 71.8747 141.771 72.4804 142.928C73.1045 144.084 73.9488 144.974 75.0133 145.598C76.0962 146.222 77.3076 146.534 78.6474 146.534C79.9873 146.534 81.1895 146.222 82.254 145.598C83.3369 144.974 84.1812 144.084 84.7869 142.928C85.411 141.771 85.723 140.432 85.723 138.908C85.723 137.366 85.411 136.027 84.7869 134.889C84.1812 133.732 83.3461 132.842 82.2816 132.218C81.217 131.594 80.0056 131.282 78.6474 131.282C77.2892 131.282 76.0778 131.594 75.0133 132.218C73.9488 132.842 73.1045 133.732 72.4804 134.889C71.8747 136.027 71.5719 137.366 71.5719 138.908ZM105.025 133.429V148.517H102.519V146.287C102.042 147.057 101.372 147.663 100.51 148.104C99.6654 148.526 98.7293 148.737 97.7015 148.737C96.5268 148.737 95.4714 148.498 94.5354 148.021C93.5993 147.525 92.856 146.791 92.3053 145.819C91.7731 144.846 91.5069 143.662 91.5069 142.267V133.429H93.9847V141.937C93.9847 143.423 94.361 144.57 95.1135 145.378C95.866 146.167 96.8939 146.562 98.197 146.562C99.5369 146.562 100.592 146.149 101.363 145.323C102.134 144.497 102.519 143.295 102.519 141.716V133.429H105.025ZM108.319 140.918C108.319 139.376 108.631 138.027 109.255 136.871C109.879 135.696 110.732 134.788 111.815 134.145C112.917 133.503 114.137 133.182 115.477 133.182C116.799 133.182 117.946 133.466 118.918 134.035C119.891 134.604 120.616 135.32 121.093 136.183V133.429H123.626V148.517H121.093V145.708C120.598 146.589 119.854 147.324 118.863 147.911C117.891 148.48 116.753 148.764 115.449 148.764C114.11 148.764 112.898 148.434 111.815 147.773C110.732 147.113 109.879 146.186 109.255 144.993C108.631 143.8 108.319 142.441 108.319 140.918ZM121.093 140.945C121.093 139.808 120.864 138.816 120.405 137.972C119.946 137.128 119.322 136.485 118.533 136.045C117.762 135.586 116.909 135.357 115.973 135.357C115.037 135.357 114.183 135.577 113.412 136.017C112.641 136.458 112.026 137.1 111.568 137.945C111.109 138.789 110.879 139.78 110.879 140.918C110.879 142.074 111.109 143.084 111.568 143.946C112.026 144.791 112.641 145.442 113.412 145.901C114.183 146.342 115.037 146.562 115.973 146.562C116.909 146.562 117.762 146.342 118.533 145.901C119.322 145.442 119.946 144.791 120.405 143.946C120.864 143.084 121.093 142.083 121.093 140.945ZM130.365 128.143V148.517H127.86V128.143H130.365ZM135.929 130.979C135.452 130.979 135.048 130.814 134.718 130.484C134.388 130.153 134.222 129.749 134.222 129.272C134.222 128.795 134.388 128.391 134.718 128.061C135.048 127.73 135.452 127.565 135.929 127.565C136.388 127.565 136.774 127.73 137.086 128.061C137.416 128.391 137.581 128.795 137.581 129.272C137.581 129.749 137.416 130.153 137.086 130.484C136.774 130.814 136.388 130.979 135.929 130.979ZM137.141 133.429V148.517H134.635V133.429H137.141ZM144.467 135.494V144.387C144.467 145.121 144.623 145.644 144.935 145.956C145.247 146.25 145.788 146.397 146.559 146.397H148.404V148.517H146.146C144.751 148.517 143.705 148.195 143.007 147.553C142.31 146.911 141.961 145.855 141.961 144.387V135.494H140.007V133.429H141.961V129.63H144.467V133.429H148.404V135.494H144.467ZM164.434 133.429L155.349 155.62H152.761L155.734 148.351L149.65 133.429H152.43L157.166 145.653L161.846 133.429H164.434ZM62.1286 170.944C62.1286 172.54 61.578 173.871 60.4768 174.936C59.3939 175.982 57.7328 176.505 55.4936 176.505H51.8044V184.517H49.2991V165.327H55.4936C57.6594 165.327 59.3021 165.85 60.4217 166.897C61.5597 167.943 62.1286 169.292 62.1286 170.944ZM55.4936 174.44C56.8885 174.44 57.9164 174.137 58.5771 173.532C59.2379 172.926 59.5682 172.063 59.5682 170.944C59.5682 168.576 58.21 167.392 55.4936 167.392H51.8044V174.44H55.4936ZM64.3064 176.918C64.3064 175.376 64.6184 174.027 65.2425 172.871C65.8665 171.696 66.72 170.788 67.8029 170.145C68.9041 169.503 70.1247 169.182 71.4646 169.182C72.7861 169.182 73.9332 169.466 74.906 170.035C75.8787 170.604 76.6037 171.32 77.0809 172.183V169.429H79.6138V184.517H77.0809V181.708C76.5854 182.589 75.842 183.324 74.8509 183.911C73.8781 184.48 72.7402 184.764 71.437 184.764C70.0972 184.764 68.8858 184.434 67.8029 183.773C66.72 183.113 65.8665 182.186 65.2425 180.993C64.6184 179.8 64.3064 178.441 64.3064 176.918ZM77.0809 176.945C77.0809 175.808 76.8515 174.816 76.3927 173.972C75.9338 173.128 75.3098 172.485 74.5205 172.045C73.7497 171.586 72.8962 171.357 71.9601 171.357C71.0241 171.357 70.1706 171.577 69.3997 172.017C68.6288 172.458 68.014 173.1 67.5551 173.945C67.0963 174.789 66.8668 175.78 66.8668 176.918C66.8668 178.074 67.0963 179.084 67.5551 179.946C68.014 180.791 68.6288 181.442 69.3997 181.901C70.1706 182.342 71.0241 182.562 71.9601 182.562C72.8962 182.562 73.7497 182.342 74.5205 181.901C75.3098 181.442 75.9338 180.791 76.3927 179.946C76.8515 179.084 77.0809 178.083 77.0809 176.945ZM82.9116 176.945C82.9116 175.385 83.2236 174.027 83.8476 172.871C84.4717 171.696 85.3343 170.788 86.4356 170.145C87.5552 169.503 88.8308 169.182 90.2624 169.182C92.1162 169.182 93.6396 169.631 94.8326 170.531C96.044 171.43 96.8424 172.678 97.2278 174.275H94.5298C94.2728 173.357 93.7681 172.632 93.0156 172.1C92.2814 171.568 91.3637 171.302 90.2624 171.302C88.8308 171.302 87.6745 171.797 86.7935 172.788C85.9125 173.761 85.472 175.147 85.472 176.945C85.472 178.763 85.9125 180.167 86.7935 181.158C87.6745 182.149 88.8308 182.644 90.2624 182.644C91.3637 182.644 92.2814 182.388 93.0156 181.874C93.7497 181.36 94.2545 180.626 94.5298 179.671H97.2278C96.8241 181.213 96.0165 182.452 94.8051 183.388C93.5937 184.306 92.0795 184.764 90.2624 184.764C88.8308 184.764 87.5552 184.443 86.4356 183.801C85.3343 183.158 84.4717 182.25 83.8476 181.075C83.2236 179.901 82.9116 178.524 82.9116 176.945ZM108.995 184.517L103.076 177.854V184.517H100.571V164.143H103.076V176.12L108.885 169.429H112.382L105.279 176.945L112.409 184.517H108.995ZM113.804 176.918C113.804 175.376 114.116 174.027 114.74 172.871C115.364 171.696 116.217 170.788 117.3 170.145C118.401 169.503 119.622 169.182 120.962 169.182C122.283 169.182 123.43 169.466 124.403 170.035C125.376 170.604 126.101 171.32 126.578 172.183V169.429H129.111V184.517H126.578V181.708C126.083 182.589 125.339 183.324 124.348 183.911C123.375 184.48 122.237 184.764 120.934 184.764C119.594 184.764 118.383 184.434 117.3 183.773C116.217 183.113 115.364 182.186 114.74 180.993C114.116 179.8 113.804 178.441 113.804 176.918ZM126.578 176.945C126.578 175.808 126.349 174.816 125.89 173.972C125.431 173.128 124.807 172.485 124.018 172.045C123.247 171.586 122.393 171.357 121.457 171.357C120.521 171.357 119.668 171.577 118.897 172.017C118.126 172.458 117.511 173.1 117.052 173.945C116.593 174.789 116.364 175.78 116.364 176.918C116.364 178.074 116.593 179.084 117.052 179.946C117.511 180.791 118.126 181.442 118.897 181.901C119.668 182.342 120.521 182.562 121.457 182.562C122.393 182.562 123.247 182.342 124.018 181.901C124.807 181.442 125.431 180.791 125.89 179.946C126.349 179.084 126.578 178.083 126.578 176.945ZM139.567 169.182C140.87 169.182 142.008 169.466 142.981 170.035C143.972 170.604 144.706 171.32 145.183 172.183V169.429H147.716V184.847C147.716 186.224 147.423 187.444 146.835 188.509C146.248 189.592 145.404 190.436 144.302 191.042C143.219 191.647 141.953 191.95 140.503 191.95C138.521 191.95 136.869 191.482 135.547 190.546C134.226 189.61 133.446 188.334 133.207 186.719H135.685C135.96 187.637 136.529 188.371 137.392 188.922C138.255 189.491 139.292 189.775 140.503 189.775C141.88 189.775 142.999 189.344 143.862 188.481C144.743 187.618 145.183 186.407 145.183 184.847V181.681C144.688 182.562 143.954 183.296 142.981 183.883C142.008 184.471 140.87 184.764 139.567 184.764C138.227 184.764 137.006 184.434 135.905 183.773C134.822 183.113 133.969 182.186 133.345 180.993C132.721 179.8 132.409 178.441 132.409 176.918C132.409 175.376 132.721 174.027 133.345 172.871C133.969 171.696 134.822 170.788 135.905 170.145C137.006 169.503 138.227 169.182 139.567 169.182ZM145.183 176.945C145.183 175.808 144.954 174.816 144.495 173.972C144.036 173.128 143.412 172.485 142.623 172.045C141.852 171.586 140.999 171.357 140.062 171.357C139.126 171.357 138.273 171.577 137.502 172.017C136.731 172.458 136.116 173.1 135.657 173.945C135.199 174.789 134.969 175.78 134.969 176.918C134.969 178.074 135.199 179.084 135.657 179.946C136.116 180.791 136.731 181.442 137.502 181.901C138.273 182.342 139.126 182.562 140.062 182.562C140.999 182.562 141.852 182.342 142.623 181.901C143.412 181.442 144.036 180.791 144.495 179.946C144.954 179.084 145.183 178.083 145.183 176.945ZM153.244 166.979C152.767 166.979 152.363 166.814 152.033 166.484C151.702 166.153 151.537 165.749 151.537 165.272C151.537 164.795 151.702 164.391 152.033 164.061C152.363 163.73 152.767 163.565 153.244 163.565C153.703 163.565 154.088 163.73 154.4 164.061C154.731 164.391 154.896 164.795 154.896 165.272C154.896 165.749 154.731 166.153 154.4 166.484C154.088 166.814 153.703 166.979 153.244 166.979ZM154.455 169.429V184.517H151.95V169.429H154.455ZM166.076 169.154C167.912 169.154 169.398 169.714 170.536 170.834C171.674 171.935 172.243 173.532 172.243 175.624V184.517H169.765V175.982C169.765 174.477 169.389 173.33 168.637 172.54C167.884 171.733 166.856 171.329 165.553 171.329C164.232 171.329 163.176 171.742 162.387 172.568C161.616 173.394 161.231 174.596 161.231 176.175V184.517H158.725V169.429H161.231V171.577C161.726 170.806 162.396 170.209 163.24 169.787C164.103 169.365 165.048 169.154 166.076 169.154ZM182.558 169.182C183.861 169.182 184.999 169.466 185.972 170.035C186.963 170.604 187.697 171.32 188.174 172.183V169.429H190.707V184.847C190.707 186.224 190.413 187.444 189.826 188.509C189.239 189.592 188.394 190.436 187.293 191.042C186.21 191.647 184.944 191.95 183.494 191.95C181.512 191.95 179.86 191.482 178.538 190.546C177.217 189.61 176.437 188.334 176.198 186.719H178.676C178.951 187.637 179.52 188.371 180.383 188.922C181.245 189.491 182.282 189.775 183.494 189.775C184.87 189.775 185.99 189.344 186.853 188.481C187.734 187.618 188.174 186.407 188.174 184.847V181.681C187.679 182.562 186.944 183.296 185.972 183.883C184.999 184.471 183.861 184.764 182.558 184.764C181.218 184.764 179.997 184.434 178.896 183.773C177.813 183.113 176.96 182.186 176.336 180.993C175.712 179.8 175.4 178.441 175.4 176.918C175.4 175.376 175.712 174.027 176.336 172.871C176.96 171.696 177.813 170.788 178.896 170.145C179.997 169.503 181.218 169.182 182.558 169.182ZM188.174 176.945C188.174 175.808 187.945 174.816 187.486 173.972C187.027 173.128 186.403 172.485 185.614 172.045C184.843 171.586 183.989 171.357 183.053 171.357C182.117 171.357 181.264 171.577 180.493 172.017C179.722 172.458 179.107 173.1 178.648 173.945C178.189 174.789 177.96 175.78 177.96 176.918C177.96 178.074 178.189 179.084 178.648 179.946C179.107 180.791 179.722 181.442 180.493 181.901C181.264 182.342 182.117 182.562 183.053 182.562C183.989 182.562 184.843 182.342 185.614 181.901C186.403 181.442 187.027 180.791 187.486 179.946C187.945 179.084 188.174 178.083 188.174 176.945Z" fill="url(#paint2_linear_6867_3203)"/>
<defs>
<linearGradient id="paint0_linear_6867_3203" x1="65.6875" y1="54.33" x2="162.262" y2="60.1598" gradientUnits="userSpaceOnUse">
<stop stop-color="#D3A74D"/>
<stop offset="0.5" stop-color="#FADF80"/>
<stop offset="1" stop-color="#C29027"/>
</linearGradient>
<linearGradient id="paint1_linear_6867_3203" x1="110.907" y1="59.2168" x2="127.118" y2="59.7255" gradientUnits="userSpaceOnUse">
<stop stop-color="#D3A74D"/>
<stop offset="0.5" stop-color="#FADF80"/>
<stop offset="1" stop-color="#C29027"/>
</linearGradient>
<linearGradient id="paint2_linear_6867_3203" x1="-675.063" y1="158.225" x2="2993.61" y2="158.225" gradientUnits="userSpaceOnUse">
<stop stop-color="#FFF0A4"/>
<stop offset="0.5" stop-color="#FADF80"/>
<stop offset="1" stop-color="#F1AE22"/>
</linearGradient>
</defs>
</svg>
