<svg width="241" height="194" viewBox="0 0 241 194" fill="none" xmlns="http://www.w3.org/2000/svg">
<circle cx="120.97" cy="54.3306" r="54.3306" fill="url(#paint0_linear_6867_3227)"/>
<path fill-rule="evenodd" clip-rule="evenodd" d="M99.8347 52.2439C100.435 51.4409 98.7591 48.4041 97.9308 47.2391C97.5541 46.7081 96.6169 46.2305 96.7596 45.4401C97.4379 41.6774 100.675 44.5426 102.399 43.4696C104.54 42.1367 104.718 39.3948 105.967 37.556C106.511 36.7544 108.221 35.6265 108.477 34.7091C108.773 33.6484 106.85 32.6837 106.525 31.7606C105.861 29.8684 106.494 27.4812 106.232 26.6569C105.898 25.5999 104.649 25.2467 104.756 23.9798C104.933 21.9076 108.808 22.409 109.994 23.2347C111.067 23.9815 112.96 25.5229 114.083 25.9753C115.516 26.5538 117.08 24.1679 118.366 25.0953C120.73 26.8005 117.236 28.5546 117.364 30.2059C117.411 30.8178 118.314 32.2001 118.083 32.7136C117.677 33.6208 116.38 33.8135 116.041 34.8089C115.539 36.293 119.508 37.5764 120.192 38.3563C121.049 39.3368 119.293 40.6285 119.109 41.6C119.087 41.7215 120.723 42.507 120.866 42.6185C121.695 43.2672 122.475 44.4287 123.464 44.8305C124.85 45.3933 126.309 44.7954 127.725 44.9865C129.764 45.2614 132.192 47.9756 134.31 46.575C135.54 45.7622 133.77 43.2086 134.945 42.8028C137.731 41.8392 137.175 44.8386 138.161 45.3749C138.27 45.4343 142.395 44.9308 142.813 44.7892C143.238 44.6446 142.913 43.6095 143.19 43.1941C143.918 42.0955 145.301 40.3316 146.493 39.6789C148.216 38.7365 153.181 40.222 153.476 42.4825C153.565 43.1634 152.362 43.2756 151.913 43.5359C150.733 44.2207 148.981 45.859 148.479 47.1202C148.245 47.7103 148.941 48.5329 149.044 49.1368C149.144 49.7374 148.557 50.9469 148.283 51.487C147.81 52.4185 146.107 51.5669 145.714 53.0203C145.31 54.511 147.54 55.9435 146.465 57.3605C146.057 57.8964 144.836 55.6551 144.67 55.2307C144.604 55.0609 144.626 55.104 144.577 54.9774C144.555 54.9195 144.533 54.8619 144.509 54.8047C144.489 54.7537 144.461 54.6791 144.424 54.6382C143.977 54.1449 141.995 55.3578 141.592 54.2762C140.881 52.3691 141.558 51.7731 142.235 50.1484C142.364 49.8365 141.568 50.0319 141.233 49.9904C140.572 49.9086 139.9 49.911 139.263 49.7038C137.871 49.2513 137.271 46.7263 135.921 48.2912C134.29 50.1838 138.342 55.1387 137.076 57.2066C136.189 58.659 134.215 58.502 133.082 59.5787C132.479 60.1509 132.899 60.918 132.312 61.5513C131.746 62.1617 130.94 62.4432 130.364 63.0586C128.032 65.554 125.897 68.2117 123.536 70.651C122.181 72.0506 120.055 71.961 118.913 73.735C118.47 74.4233 119.666 76.7145 119.61 77.7668C119.553 78.866 118.767 79.9835 118.629 81.1179C118.542 81.8313 119.097 83.0016 118.817 83.6141C118.235 84.8875 116.228 85.7965 115.241 86.7271C114.418 87.502 113.883 89.2991 112.413 89.0501C109.716 88.5927 110.026 83.989 109.213 82.0438C108.788 81.0293 107.872 80.2345 107.378 79.2212C106.619 77.6609 106.776 75.8606 106.113 74.2862C105.308 72.3779 104.009 70.8336 103.582 68.7692C102.889 65.4072 103.913 62.7958 103.429 59.7133C103.407 59.5712 103.142 58.6409 102.918 58.6129C102.118 58.513 101.153 60.0105 100.47 60.3164C99.4094 60.7913 97.0215 59.1514 96.2623 58.5954C94.916 57.6086 94.8675 57.2657 95.8474 55.9154C96.1372 55.5169 94.3775 54.3327 94.1789 54.1138C94.1568 54.0892 94.2436 53.9116 94.2451 53.9105C94.5467 53.2969 96.1387 52.4625 96.7669 52.1053C97.5276 51.6727 98.9239 52.5071 99.8347 52.2439Z" fill="#033431"/>
<path d="M59.3187 148.709C57.5383 148.709 55.914 148.296 54.4456 147.47C52.9773 146.626 51.8118 145.461 50.9492 143.974C50.1049 142.469 49.6827 140.78 49.6827 138.908C49.6827 137.036 50.1049 135.357 50.9492 133.87C51.8118 132.365 52.9773 131.199 54.4456 130.373C55.914 129.529 57.5383 129.107 59.3187 129.107C61.1174 129.107 62.7509 129.529 64.2193 130.373C65.6876 131.199 66.8439 132.356 67.6882 133.842C68.5325 135.329 68.9546 137.018 68.9546 138.908C68.9546 140.799 68.5325 142.487 67.6882 143.974C66.8439 145.461 65.6876 146.626 64.2193 147.47C62.7509 148.296 61.1174 148.709 59.3187 148.709ZM59.3187 146.534C60.6585 146.534 61.8607 146.222 62.9253 145.598C64.0082 144.974 64.8525 144.084 65.4582 142.928C66.0822 141.771 66.3942 140.432 66.3942 138.908C66.3942 137.366 66.0822 136.027 65.4582 134.889C64.8525 133.732 64.0174 132.842 62.9528 132.218C61.8883 131.594 60.6769 131.282 59.3187 131.282C57.9605 131.282 56.7491 131.594 55.6846 132.218C54.62 132.842 53.7757 133.732 53.1517 134.889C52.546 136.027 52.2431 137.366 52.2431 138.908C52.2431 140.432 52.546 141.771 53.1517 142.928C53.7757 144.084 54.62 144.974 55.6846 145.598C56.7674 146.222 57.9788 146.534 59.3187 146.534ZM79.6129 133.154C81.4483 133.154 82.935 133.714 84.073 134.834C85.211 135.935 85.7799 137.532 85.7799 139.624V148.517H83.3021V139.982C83.3021 138.477 82.9259 137.33 82.1733 136.54C81.4208 135.733 80.393 135.329 79.0898 135.329C77.7683 135.329 76.713 135.742 75.9237 136.568C75.1528 137.394 74.7674 138.596 74.7674 140.175V148.517H72.2621V133.429H74.7674V135.577C75.263 134.806 75.9329 134.209 76.7772 133.787C77.6398 133.365 78.5851 133.154 79.6129 133.154ZM103.638 140.395C103.638 140.872 103.611 141.377 103.555 141.909H91.4968C91.5885 143.396 92.0933 144.561 93.011 145.406C93.947 146.232 95.0758 146.644 96.3973 146.644C97.4802 146.644 98.3796 146.397 99.0954 145.901C99.8296 145.387 100.343 144.708 100.637 143.864H103.335C102.931 145.314 102.124 146.498 100.912 147.415C99.7011 148.315 98.196 148.764 96.3973 148.764C94.9657 148.764 93.6809 148.443 92.543 147.801C91.4233 147.158 90.5423 146.25 89.8999 145.075C89.2575 143.882 88.9363 142.506 88.9363 140.945C88.9363 139.385 89.2484 138.018 89.8724 136.843C90.4965 135.669 91.3683 134.769 92.4879 134.145C93.6258 133.503 94.929 133.182 96.3973 133.182C97.829 133.182 99.0954 133.494 100.197 134.118C101.298 134.742 102.142 135.604 102.73 136.706C103.335 137.789 103.638 139.018 103.638 140.395ZM101.05 139.872C101.05 138.917 100.839 138.101 100.417 137.421C99.9948 136.724 99.4166 136.201 98.6824 135.852C97.9666 135.485 97.1682 135.302 96.2872 135.302C95.0208 135.302 93.9379 135.705 93.0385 136.513C92.1575 137.321 91.6528 138.44 91.5243 139.872H101.05ZM113.349 138.908C113.349 137.036 113.771 135.357 114.615 133.87C115.46 132.365 116.607 131.19 118.057 130.346C119.525 129.502 121.149 129.079 122.93 129.079C125.022 129.079 126.848 129.584 128.409 130.594C129.969 131.603 131.107 133.035 131.822 134.889H128.821C128.289 133.732 127.518 132.842 126.509 132.218C125.518 131.594 124.325 131.282 122.93 131.282C121.59 131.282 120.388 131.594 119.323 132.218C118.259 132.842 117.424 133.732 116.818 134.889C116.212 136.027 115.909 137.366 115.909 138.908C115.909 140.432 116.212 141.771 116.818 142.928C117.424 144.066 118.259 144.947 119.323 145.571C120.388 146.195 121.59 146.507 122.93 146.507C124.325 146.507 125.518 146.204 126.509 145.598C127.518 144.974 128.289 144.084 128.821 142.928H131.822C131.107 144.763 129.969 146.186 128.409 147.195C126.848 148.186 125.022 148.682 122.93 148.682C121.149 148.682 119.525 148.269 118.057 147.443C116.607 146.599 115.46 145.433 114.615 143.946C113.771 142.46 113.349 140.78 113.349 138.908ZM136.846 130.979C136.369 130.979 135.965 130.814 135.634 130.484C135.304 130.153 135.139 129.749 135.139 129.272C135.139 128.795 135.304 128.391 135.634 128.061C135.965 127.73 136.369 127.565 136.846 127.565C137.305 127.565 137.69 127.73 138.002 128.061C138.332 128.391 138.498 128.795 138.498 129.272C138.498 129.749 138.332 130.153 138.002 130.484C137.69 130.814 137.305 130.979 136.846 130.979ZM138.057 133.429V148.517H135.552V133.429H138.057ZM145.383 135.494V144.387C145.383 145.121 145.539 145.644 145.851 145.956C146.163 146.25 146.705 146.397 147.475 146.397H149.32V148.517H147.062C145.668 148.517 144.621 148.195 143.924 147.553C143.226 146.911 142.878 145.855 142.878 144.387V135.494H140.923V133.429H142.878V129.63H145.383V133.429H149.32V135.494H145.383ZM165.35 133.429L156.265 155.62H153.677L156.65 148.351L150.566 133.429H153.347L158.082 145.653L162.762 133.429H165.35ZM189.938 148.517L187.433 145.984C186.497 146.956 185.496 147.681 184.432 148.159C183.367 148.618 182.165 148.847 180.825 148.847C179.504 148.847 178.329 148.608 177.301 148.131C176.292 147.654 175.502 146.975 174.933 146.094C174.383 145.213 174.107 144.185 174.107 143.01C174.107 141.67 174.484 140.496 175.236 139.486C176.007 138.458 177.136 137.651 178.623 137.064C178.035 136.366 177.613 135.724 177.356 135.136C177.099 134.549 176.971 133.907 176.971 133.209C176.971 132.402 177.173 131.677 177.576 131.034C177.999 130.373 178.595 129.86 179.366 129.492C180.137 129.125 181.027 128.942 182.036 128.942C183.028 128.942 183.89 129.135 184.624 129.52C185.359 129.905 185.909 130.447 186.276 131.144C186.643 131.823 186.809 132.585 186.772 133.429H184.267C184.285 132.677 184.074 132.09 183.633 131.667C183.193 131.227 182.624 131.007 181.926 131.007C181.192 131.007 180.596 131.218 180.137 131.64C179.696 132.044 179.476 132.567 179.476 133.209C179.476 133.76 179.623 134.292 179.917 134.806C180.229 135.32 180.743 135.953 181.458 136.706L187.185 142.46L187.68 141.689L189.553 138.55H192.251L189.993 142.46C189.681 143.01 189.314 143.588 188.892 144.194L193.214 148.517H189.938ZM180.825 146.7C181.816 146.7 182.706 146.507 183.496 146.121C184.303 145.736 185.065 145.139 185.781 144.332L180.137 138.66C177.787 139.56 176.613 140.982 176.613 142.928C176.613 144.011 176.998 144.91 177.769 145.626C178.558 146.342 179.577 146.7 180.825 146.7ZM60.1925 184.709C58.4121 184.709 56.7878 184.296 55.3194 183.47C53.8511 182.626 52.6856 181.461 51.823 179.974C50.9787 178.469 50.5565 176.78 50.5565 174.908C50.5565 173.036 50.9787 171.357 51.823 169.87C52.6856 168.365 53.8511 167.199 55.3194 166.373C56.7878 165.529 58.4121 165.107 60.1925 165.107C61.9912 165.107 63.6247 165.529 65.0931 166.373C66.5614 167.199 67.7177 168.356 68.562 169.842C69.4063 171.329 69.8284 173.018 69.8284 174.908C69.8284 176.799 69.4063 178.487 68.562 179.974C67.7177 181.461 66.5614 182.626 65.0931 183.47C63.6247 184.296 61.9912 184.709 60.1925 184.709ZM60.1925 182.534C61.5323 182.534 62.7345 182.222 63.7991 181.598C64.882 180.974 65.7263 180.084 66.332 178.928C66.956 177.771 67.268 176.432 67.268 174.908C67.268 173.366 66.956 172.027 66.332 170.889C65.7263 169.732 64.8912 168.842 63.8266 168.218C62.7621 167.594 61.5507 167.282 60.1925 167.282C58.8343 167.282 57.6229 167.594 56.5583 168.218C55.4938 168.842 54.6495 169.732 54.0255 170.889C53.4198 172.027 53.1169 173.366 53.1169 174.908C53.1169 176.432 53.4198 177.771 54.0255 178.928C54.6495 180.084 55.4938 180.974 56.5583 181.598C57.6412 182.222 58.8526 182.534 60.1925 182.534ZM80.4867 169.154C82.3221 169.154 83.8088 169.714 84.9468 170.834C86.0847 171.935 86.6537 173.532 86.6537 175.624V184.517H84.1759V175.982C84.1759 174.477 83.7996 173.33 83.0471 172.54C82.2946 171.733 81.2668 171.329 79.9636 171.329C78.6421 171.329 77.5867 171.742 76.7975 172.568C76.0266 173.394 75.6412 174.596 75.6412 176.175V184.517H73.1359V169.429H75.6412V171.577C76.1368 170.806 76.8067 170.209 77.651 169.787C78.5136 169.365 79.4589 169.154 80.4867 169.154ZM104.512 176.395C104.512 176.872 104.484 177.377 104.429 177.909H92.3706C92.4623 179.396 92.9671 180.561 93.8848 181.406C94.8208 182.232 95.9496 182.644 97.2711 182.644C98.354 182.644 99.2534 182.397 99.9692 181.901C100.703 181.387 101.217 180.708 101.511 179.864H104.209C103.805 181.314 102.998 182.498 101.786 183.415C100.575 184.315 99.0698 184.764 97.2711 184.764C95.8395 184.764 94.5547 184.443 93.4167 183.801C92.2971 183.158 91.4161 182.25 90.7737 181.075C90.1313 179.882 89.8101 178.506 89.8101 176.945C89.8101 175.385 90.1222 174.018 90.7462 172.843C91.3703 171.669 92.2421 170.769 93.3617 170.145C94.4996 169.503 95.8028 169.182 97.2711 169.182C98.7028 169.182 99.9692 169.494 101.07 170.118C102.172 170.742 103.016 171.604 103.603 172.706C104.209 173.789 104.512 175.018 104.512 176.395ZM101.924 175.872C101.924 174.917 101.713 174.101 101.291 173.421C100.869 172.724 100.29 172.201 99.5562 171.852C98.8404 171.485 98.042 171.302 97.161 171.302C95.8946 171.302 94.8117 171.705 93.9123 172.513C93.0313 173.321 92.5266 174.44 92.3981 175.872H101.924ZM114.223 174.908C114.223 173.036 114.645 171.357 115.489 169.87C116.333 168.365 117.481 167.19 118.931 166.346C120.399 165.502 122.023 165.079 123.804 165.079C125.896 165.079 127.722 165.584 129.282 166.594C130.842 167.603 131.98 169.035 132.696 170.889H129.695C129.163 169.732 128.392 168.842 127.383 168.218C126.392 167.594 125.198 167.282 123.804 167.282C122.464 167.282 121.262 167.594 120.197 168.218C119.132 168.842 118.297 169.732 117.692 170.889C117.086 172.027 116.783 173.366 116.783 174.908C116.783 176.432 117.086 177.771 117.692 178.928C118.297 180.066 119.132 180.947 120.197 181.571C121.262 182.195 122.464 182.507 123.804 182.507C125.198 182.507 126.392 182.204 127.383 181.598C128.392 180.974 129.163 180.084 129.695 178.928H132.696C131.98 180.763 130.842 182.186 129.282 183.195C127.722 184.186 125.896 184.682 123.804 184.682C122.023 184.682 120.399 184.269 118.931 183.443C117.481 182.599 116.333 181.433 115.489 179.946C114.645 178.46 114.223 176.78 114.223 174.908ZM138.931 164.143V184.517H136.426V164.143H138.931ZM144.495 166.979C144.018 166.979 143.614 166.814 143.283 166.484C142.953 166.153 142.788 165.749 142.788 165.272C142.788 164.795 142.953 164.391 143.283 164.061C143.614 163.73 144.018 163.565 144.495 163.565C144.954 163.565 145.339 163.73 145.651 164.061C145.982 164.391 146.147 164.795 146.147 165.272C146.147 165.749 145.982 166.153 145.651 166.484C145.339 166.814 144.954 166.979 144.495 166.979ZM145.706 169.429V184.517H143.201V169.429H145.706ZM163.742 176.395C163.742 176.872 163.714 177.377 163.659 177.909H151.601C151.692 179.396 152.197 180.561 153.115 181.406C154.051 182.232 155.18 182.644 156.501 182.644C157.584 182.644 158.483 182.397 159.199 181.901C159.933 181.387 160.447 180.708 160.741 179.864H163.439C163.035 181.314 162.228 182.498 161.016 183.415C159.805 184.315 158.3 184.764 156.501 184.764C155.069 184.764 153.785 184.443 152.647 183.801C151.527 183.158 150.646 182.25 150.004 181.075C149.361 179.882 149.04 178.506 149.04 176.945C149.04 175.385 149.352 174.018 149.976 172.843C150.6 171.669 151.472 170.769 152.592 170.145C153.73 169.503 155.033 169.182 156.501 169.182C157.933 169.182 159.199 169.494 160.3 170.118C161.402 170.742 162.246 171.604 162.833 172.706C163.439 173.789 163.742 175.018 163.742 176.395ZM161.154 175.872C161.154 174.917 160.943 174.101 160.521 173.421C160.099 172.724 159.52 172.201 158.786 171.852C158.07 171.485 157.272 171.302 156.391 171.302C155.125 171.302 154.042 171.705 153.142 172.513C152.261 173.321 151.757 174.44 151.628 175.872H161.154ZM174.4 169.154C176.235 169.154 177.722 169.714 178.86 170.834C179.998 171.935 180.567 173.532 180.567 175.624V184.517H178.089V175.982C178.089 174.477 177.713 173.33 176.96 172.54C176.208 171.733 175.18 171.329 173.877 171.329C172.555 171.329 171.5 171.742 170.71 172.568C169.94 173.394 169.554 174.596 169.554 176.175V184.517H167.049V169.429H169.554V171.577C170.05 170.806 170.72 170.209 171.564 169.787C172.427 169.365 173.372 169.154 174.4 169.154ZM187.715 171.494V180.387C187.715 181.121 187.871 181.644 188.183 181.956C188.495 182.25 189.037 182.397 189.808 182.397H191.652V184.517H189.395C188 184.517 186.953 184.195 186.256 183.553C185.559 182.911 185.21 181.855 185.21 180.387V171.494H183.255V169.429H185.21V165.63H187.715V169.429H191.652V171.494H187.715Z" fill="white"/>
<path d="M59.3187 148.709C57.5383 148.709 55.914 148.296 54.4456 147.47C52.9773 146.626 51.8118 145.461 50.9492 143.974C50.1049 142.469 49.6827 140.78 49.6827 138.908C49.6827 137.036 50.1049 135.357 50.9492 133.87C51.8118 132.365 52.9773 131.199 54.4456 130.373C55.914 129.529 57.5383 129.107 59.3187 129.107C61.1174 129.107 62.7509 129.529 64.2193 130.373C65.6876 131.199 66.8439 132.356 67.6882 133.842C68.5325 135.329 68.9546 137.018 68.9546 138.908C68.9546 140.799 68.5325 142.487 67.6882 143.974C66.8439 145.461 65.6876 146.626 64.2193 147.47C62.7509 148.296 61.1174 148.709 59.3187 148.709ZM59.3187 146.534C60.6585 146.534 61.8607 146.222 62.9253 145.598C64.0082 144.974 64.8525 144.084 65.4582 142.928C66.0822 141.771 66.3942 140.432 66.3942 138.908C66.3942 137.366 66.0822 136.027 65.4582 134.889C64.8525 133.732 64.0174 132.842 62.9528 132.218C61.8883 131.594 60.6769 131.282 59.3187 131.282C57.9605 131.282 56.7491 131.594 55.6846 132.218C54.62 132.842 53.7757 133.732 53.1517 134.889C52.546 136.027 52.2431 137.366 52.2431 138.908C52.2431 140.432 52.546 141.771 53.1517 142.928C53.7757 144.084 54.62 144.974 55.6846 145.598C56.7674 146.222 57.9788 146.534 59.3187 146.534ZM79.6129 133.154C81.4483 133.154 82.935 133.714 84.073 134.834C85.211 135.935 85.7799 137.532 85.7799 139.624V148.517H83.3021V139.982C83.3021 138.477 82.9259 137.33 82.1733 136.54C81.4208 135.733 80.393 135.329 79.0898 135.329C77.7683 135.329 76.713 135.742 75.9237 136.568C75.1528 137.394 74.7674 138.596 74.7674 140.175V148.517H72.2621V133.429H74.7674V135.577C75.263 134.806 75.9329 134.209 76.7772 133.787C77.6398 133.365 78.5851 133.154 79.6129 133.154ZM103.638 140.395C103.638 140.872 103.611 141.377 103.555 141.909H91.4968C91.5885 143.396 92.0933 144.561 93.011 145.406C93.947 146.232 95.0758 146.644 96.3973 146.644C97.4802 146.644 98.3796 146.397 99.0954 145.901C99.8296 145.387 100.343 144.708 100.637 143.864H103.335C102.931 145.314 102.124 146.498 100.912 147.415C99.7011 148.315 98.196 148.764 96.3973 148.764C94.9657 148.764 93.6809 148.443 92.543 147.801C91.4233 147.158 90.5423 146.25 89.8999 145.075C89.2575 143.882 88.9363 142.506 88.9363 140.945C88.9363 139.385 89.2484 138.018 89.8724 136.843C90.4965 135.669 91.3683 134.769 92.4879 134.145C93.6258 133.503 94.929 133.182 96.3973 133.182C97.829 133.182 99.0954 133.494 100.197 134.118C101.298 134.742 102.142 135.604 102.73 136.706C103.335 137.789 103.638 139.018 103.638 140.395ZM101.05 139.872C101.05 138.917 100.839 138.101 100.417 137.421C99.9948 136.724 99.4166 136.201 98.6824 135.852C97.9666 135.485 97.1682 135.302 96.2872 135.302C95.0208 135.302 93.9379 135.705 93.0385 136.513C92.1575 137.321 91.6528 138.44 91.5243 139.872H101.05ZM113.349 138.908C113.349 137.036 113.771 135.357 114.615 133.87C115.46 132.365 116.607 131.19 118.057 130.346C119.525 129.502 121.149 129.079 122.93 129.079C125.022 129.079 126.848 129.584 128.409 130.594C129.969 131.603 131.107 133.035 131.822 134.889H128.821C128.289 133.732 127.518 132.842 126.509 132.218C125.518 131.594 124.325 131.282 122.93 131.282C121.59 131.282 120.388 131.594 119.323 132.218C118.259 132.842 117.424 133.732 116.818 134.889C116.212 136.027 115.909 137.366 115.909 138.908C115.909 140.432 116.212 141.771 116.818 142.928C117.424 144.066 118.259 144.947 119.323 145.571C120.388 146.195 121.59 146.507 122.93 146.507C124.325 146.507 125.518 146.204 126.509 145.598C127.518 144.974 128.289 144.084 128.821 142.928H131.822C131.107 144.763 129.969 146.186 128.409 147.195C126.848 148.186 125.022 148.682 122.93 148.682C121.149 148.682 119.525 148.269 118.057 147.443C116.607 146.599 115.46 145.433 114.615 143.946C113.771 142.46 113.349 140.78 113.349 138.908ZM136.846 130.979C136.369 130.979 135.965 130.814 135.634 130.484C135.304 130.153 135.139 129.749 135.139 129.272C135.139 128.795 135.304 128.391 135.634 128.061C135.965 127.73 136.369 127.565 136.846 127.565C137.305 127.565 137.69 127.73 138.002 128.061C138.332 128.391 138.498 128.795 138.498 129.272C138.498 129.749 138.332 130.153 138.002 130.484C137.69 130.814 137.305 130.979 136.846 130.979ZM138.057 133.429V148.517H135.552V133.429H138.057ZM145.383 135.494V144.387C145.383 145.121 145.539 145.644 145.851 145.956C146.163 146.25 146.705 146.397 147.475 146.397H149.32V148.517H147.062C145.668 148.517 144.621 148.195 143.924 147.553C143.226 146.911 142.878 145.855 142.878 144.387V135.494H140.923V133.429H142.878V129.63H145.383V133.429H149.32V135.494H145.383ZM165.35 133.429L156.265 155.62H153.677L156.65 148.351L150.566 133.429H153.347L158.082 145.653L162.762 133.429H165.35ZM189.938 148.517L187.433 145.984C186.497 146.956 185.496 147.681 184.432 148.159C183.367 148.618 182.165 148.847 180.825 148.847C179.504 148.847 178.329 148.608 177.301 148.131C176.292 147.654 175.502 146.975 174.933 146.094C174.383 145.213 174.107 144.185 174.107 143.01C174.107 141.67 174.484 140.496 175.236 139.486C176.007 138.458 177.136 137.651 178.623 137.064C178.035 136.366 177.613 135.724 177.356 135.136C177.099 134.549 176.971 133.907 176.971 133.209C176.971 132.402 177.173 131.677 177.576 131.034C177.999 130.373 178.595 129.86 179.366 129.492C180.137 129.125 181.027 128.942 182.036 128.942C183.028 128.942 183.89 129.135 184.624 129.52C185.359 129.905 185.909 130.447 186.276 131.144C186.643 131.823 186.809 132.585 186.772 133.429H184.267C184.285 132.677 184.074 132.09 183.633 131.667C183.193 131.227 182.624 131.007 181.926 131.007C181.192 131.007 180.596 131.218 180.137 131.64C179.696 132.044 179.476 132.567 179.476 133.209C179.476 133.76 179.623 134.292 179.917 134.806C180.229 135.32 180.743 135.953 181.458 136.706L187.185 142.46L187.68 141.689L189.553 138.55H192.251L189.993 142.46C189.681 143.01 189.314 143.588 188.892 144.194L193.214 148.517H189.938ZM180.825 146.7C181.816 146.7 182.706 146.507 183.496 146.121C184.303 145.736 185.065 145.139 185.781 144.332L180.137 138.66C177.787 139.56 176.613 140.982 176.613 142.928C176.613 144.011 176.998 144.91 177.769 145.626C178.558 146.342 179.577 146.7 180.825 146.7ZM60.1925 184.709C58.4121 184.709 56.7878 184.296 55.3194 183.47C53.8511 182.626 52.6856 181.461 51.823 179.974C50.9787 178.469 50.5565 176.78 50.5565 174.908C50.5565 173.036 50.9787 171.357 51.823 169.87C52.6856 168.365 53.8511 167.199 55.3194 166.373C56.7878 165.529 58.4121 165.107 60.1925 165.107C61.9912 165.107 63.6247 165.529 65.0931 166.373C66.5614 167.199 67.7177 168.356 68.562 169.842C69.4063 171.329 69.8284 173.018 69.8284 174.908C69.8284 176.799 69.4063 178.487 68.562 179.974C67.7177 181.461 66.5614 182.626 65.0931 183.47C63.6247 184.296 61.9912 184.709 60.1925 184.709ZM60.1925 182.534C61.5323 182.534 62.7345 182.222 63.7991 181.598C64.882 180.974 65.7263 180.084 66.332 178.928C66.956 177.771 67.268 176.432 67.268 174.908C67.268 173.366 66.956 172.027 66.332 170.889C65.7263 169.732 64.8912 168.842 63.8266 168.218C62.7621 167.594 61.5507 167.282 60.1925 167.282C58.8343 167.282 57.6229 167.594 56.5583 168.218C55.4938 168.842 54.6495 169.732 54.0255 170.889C53.4198 172.027 53.1169 173.366 53.1169 174.908C53.1169 176.432 53.4198 177.771 54.0255 178.928C54.6495 180.084 55.4938 180.974 56.5583 181.598C57.6412 182.222 58.8526 182.534 60.1925 182.534ZM80.4867 169.154C82.3221 169.154 83.8088 169.714 84.9468 170.834C86.0847 171.935 86.6537 173.532 86.6537 175.624V184.517H84.1759V175.982C84.1759 174.477 83.7996 173.33 83.0471 172.54C82.2946 171.733 81.2668 171.329 79.9636 171.329C78.6421 171.329 77.5867 171.742 76.7975 172.568C76.0266 173.394 75.6412 174.596 75.6412 176.175V184.517H73.1359V169.429H75.6412V171.577C76.1368 170.806 76.8067 170.209 77.651 169.787C78.5136 169.365 79.4589 169.154 80.4867 169.154ZM104.512 176.395C104.512 176.872 104.484 177.377 104.429 177.909H92.3706C92.4623 179.396 92.9671 180.561 93.8848 181.406C94.8208 182.232 95.9496 182.644 97.2711 182.644C98.354 182.644 99.2534 182.397 99.9692 181.901C100.703 181.387 101.217 180.708 101.511 179.864H104.209C103.805 181.314 102.998 182.498 101.786 183.415C100.575 184.315 99.0698 184.764 97.2711 184.764C95.8395 184.764 94.5547 184.443 93.4167 183.801C92.2971 183.158 91.4161 182.25 90.7737 181.075C90.1313 179.882 89.8101 178.506 89.8101 176.945C89.8101 175.385 90.1222 174.018 90.7462 172.843C91.3703 171.669 92.2421 170.769 93.3617 170.145C94.4996 169.503 95.8028 169.182 97.2711 169.182C98.7028 169.182 99.9692 169.494 101.07 170.118C102.172 170.742 103.016 171.604 103.603 172.706C104.209 173.789 104.512 175.018 104.512 176.395ZM101.924 175.872C101.924 174.917 101.713 174.101 101.291 173.421C100.869 172.724 100.29 172.201 99.5562 171.852C98.8404 171.485 98.042 171.302 97.161 171.302C95.8946 171.302 94.8117 171.705 93.9123 172.513C93.0313 173.321 92.5266 174.44 92.3981 175.872H101.924ZM114.223 174.908C114.223 173.036 114.645 171.357 115.489 169.87C116.333 168.365 117.481 167.19 118.931 166.346C120.399 165.502 122.023 165.079 123.804 165.079C125.896 165.079 127.722 165.584 129.282 166.594C130.842 167.603 131.98 169.035 132.696 170.889H129.695C129.163 169.732 128.392 168.842 127.383 168.218C126.392 167.594 125.198 167.282 123.804 167.282C122.464 167.282 121.262 167.594 120.197 168.218C119.132 168.842 118.297 169.732 117.692 170.889C117.086 172.027 116.783 173.366 116.783 174.908C116.783 176.432 117.086 177.771 117.692 178.928C118.297 180.066 119.132 180.947 120.197 181.571C121.262 182.195 122.464 182.507 123.804 182.507C125.198 182.507 126.392 182.204 127.383 181.598C128.392 180.974 129.163 180.084 129.695 178.928H132.696C131.98 180.763 130.842 182.186 129.282 183.195C127.722 184.186 125.896 184.682 123.804 184.682C122.023 184.682 120.399 184.269 118.931 183.443C117.481 182.599 116.333 181.433 115.489 179.946C114.645 178.46 114.223 176.78 114.223 174.908ZM138.931 164.143V184.517H136.426V164.143H138.931ZM144.495 166.979C144.018 166.979 143.614 166.814 143.283 166.484C142.953 166.153 142.788 165.749 142.788 165.272C142.788 164.795 142.953 164.391 143.283 164.061C143.614 163.73 144.018 163.565 144.495 163.565C144.954 163.565 145.339 163.73 145.651 164.061C145.982 164.391 146.147 164.795 146.147 165.272C146.147 165.749 145.982 166.153 145.651 166.484C145.339 166.814 144.954 166.979 144.495 166.979ZM145.706 169.429V184.517H143.201V169.429H145.706ZM163.742 176.395C163.742 176.872 163.714 177.377 163.659 177.909H151.601C151.692 179.396 152.197 180.561 153.115 181.406C154.051 182.232 155.18 182.644 156.501 182.644C157.584 182.644 158.483 182.397 159.199 181.901C159.933 181.387 160.447 180.708 160.741 179.864H163.439C163.035 181.314 162.228 182.498 161.016 183.415C159.805 184.315 158.3 184.764 156.501 184.764C155.069 184.764 153.785 184.443 152.647 183.801C151.527 183.158 150.646 182.25 150.004 181.075C149.361 179.882 149.04 178.506 149.04 176.945C149.04 175.385 149.352 174.018 149.976 172.843C150.6 171.669 151.472 170.769 152.592 170.145C153.73 169.503 155.033 169.182 156.501 169.182C157.933 169.182 159.199 169.494 160.3 170.118C161.402 170.742 162.246 171.604 162.833 172.706C163.439 173.789 163.742 175.018 163.742 176.395ZM161.154 175.872C161.154 174.917 160.943 174.101 160.521 173.421C160.099 172.724 159.52 172.201 158.786 171.852C158.07 171.485 157.272 171.302 156.391 171.302C155.125 171.302 154.042 171.705 153.142 172.513C152.261 173.321 151.757 174.44 151.628 175.872H161.154ZM174.4 169.154C176.235 169.154 177.722 169.714 178.86 170.834C179.998 171.935 180.567 173.532 180.567 175.624V184.517H178.089V175.982C178.089 174.477 177.713 173.33 176.96 172.54C176.208 171.733 175.18 171.329 173.877 171.329C172.555 171.329 171.5 171.742 170.71 172.568C169.94 173.394 169.554 174.596 169.554 176.175V184.517H167.049V169.429H169.554V171.577C170.05 170.806 170.72 170.209 171.564 169.787C172.427 169.365 173.372 169.154 174.4 169.154ZM187.715 171.494V180.387C187.715 181.121 187.871 181.644 188.183 181.956C188.495 182.25 189.037 182.397 189.808 182.397H191.652V184.517H189.395C188 184.517 186.953 184.195 186.256 183.553C185.559 182.911 185.21 181.855 185.21 180.387V171.494H183.255V169.429H185.21V165.63H187.715V169.429H191.652V171.494H187.715Z" fill="url(#paint1_linear_6867_3227)"/>
<defs>
<linearGradient id="paint0_linear_6867_3227" x1="66.6582" y1="54.33" x2="163.232" y2="60.1598" gradientUnits="userSpaceOnUse">
<stop stop-color="#D3A74D"/>
<stop offset="0.5" stop-color="#FADF80"/>
<stop offset="1" stop-color="#C29027"/>
</linearGradient>
<linearGradient id="paint1_linear_6867_3227" x1="-668.647" y1="158.225" x2="2974.9" y2="158.225" gradientUnits="userSpaceOnUse">
<stop stop-color="#FFF0A4"/>
<stop offset="0.5" stop-color="#FADF80"/>
<stop offset="1" stop-color="#F1AE22"/>
</linearGradient>
</defs>
</svg>
