<svg width="241" height="194" viewBox="0 0 241 194" fill="none" xmlns="http://www.w3.org/2000/svg">
<circle cx="120.98" cy="54.3306" r="54.3306" fill="url(#paint0_linear_6867_3218)"/>
<g clip-path="url(#clip0_6867_3218)">
<path d="M100.97 75.5127H140.99C142.285 75.5127 143.334 76.5626 143.334 77.8574V83.5576C143.334 83.8478 143.099 84.083 142.809 84.083H99.1509C98.8607 84.083 98.6255 83.8478 98.6255 83.5576V77.8574C98.6256 76.5626 99.6753 75.5127 100.97 75.5127ZM141.515 59.1406V71.1064H100.444V59.1406H141.515ZM143.334 46.2236V52.3906C143.334 53.6771 142.276 54.7344 140.99 54.7344H100.97C99.6837 54.7344 98.6257 53.6771 98.6255 52.3906V46.2236L120.979 42.7842L143.334 46.2236Z" fill="url(#paint1_linear_6867_3218)" stroke="#033431" stroke-width="2.58717"/>
<path d="M99.1504 28.459C100.156 28.459 100.969 29.2726 100.969 30.2781C100.969 31.2836 100.156 32.0972 99.1504 32.0972H91.7527C90.7472 32.0972 89.9336 31.2836 89.9336 30.2781C89.9336 29.2726 90.7472 28.459 91.7527 28.459H99.1504Z" fill="#033431"/>
<path d="M142.809 28.459H150.207C151.212 28.459 152.026 29.2726 152.026 30.2781C152.026 31.2836 151.212 32.0972 150.207 32.0972H142.809C141.803 32.0972 140.99 31.2836 140.99 30.2781C140.99 29.2726 141.803 28.459 142.809 28.459Z" fill="#033431"/>
<path d="M139.171 23.2842H102.789C99.7689 23.2842 97.3315 25.7217 97.3315 28.7415V45.1134H144.628V28.7415C144.628 25.7217 142.191 23.2842 139.171 23.2842ZM97.3315 77.8573H144.628V52.3898H97.3315V77.8573ZM102.243 63.8501L106.973 59.1204C107.664 58.4292 108.828 58.4292 109.519 59.1204L114.249 63.8501C114.395 63.9957 114.54 64.214 114.613 64.3959C114.686 64.214 114.831 63.9957 114.977 63.8501L119.706 59.1204C120.398 58.4292 121.562 58.4292 122.253 59.1204L126.983 63.8501C127.128 63.9957 127.274 64.214 127.347 64.3959C127.419 64.214 127.565 63.9957 127.71 63.8501L132.44 59.1204C133.132 58.4292 134.295 58.4292 134.987 59.1204L139.716 63.8501C140.408 64.5413 140.408 65.7056 139.716 66.3968L134.987 71.1265C134.659 71.4541 134.186 71.6359 133.713 71.6359C133.24 71.6359 132.767 71.4539 132.44 71.1265L127.71 66.3968C127.565 66.2514 127.419 66.0331 127.347 65.8512C127.274 66.0331 127.128 66.2514 126.983 66.3968L122.253 71.1265C121.926 71.4541 121.453 71.6359 120.98 71.6359C120.507 71.6359 120.034 71.4539 119.707 71.1265L114.977 66.3968C114.832 66.2514 114.686 66.0331 114.613 65.8512C114.54 66.0331 114.395 66.2514 114.249 66.3968L109.52 71.1265C109.192 71.4541 108.719 71.6359 108.246 71.6359C107.773 71.6359 107.3 71.4539 106.973 71.1265L102.243 66.3968C101.552 65.7056 101.552 64.5413 102.243 63.8501Z" fill="#033431"/>
</g>
<path d="M70.0587 134.944C70.0587 136.54 69.508 137.871 68.4068 138.936C67.3239 139.982 65.6628 140.505 63.4236 140.505H59.7344V148.517H57.2291V129.327H63.4236C65.5894 129.327 67.2321 129.85 68.3517 130.897C69.4897 131.943 70.0587 133.292 70.0587 134.944ZM63.4236 138.44C64.8185 138.44 65.8464 138.137 66.5071 137.532C67.1679 136.926 67.4983 136.063 67.4983 134.944C67.4983 132.576 66.14 131.392 63.4236 131.392H59.7344V138.44H63.4236ZM75.6779 135.88C76.1184 135.017 76.7424 134.347 77.55 133.87C78.3759 133.393 79.3762 133.154 80.5509 133.154V135.742H79.8901C77.082 135.742 75.6779 137.265 75.6779 140.312V148.517H73.1725V133.429H75.6779V135.88ZM97.2086 140.395C97.2086 140.872 97.1811 141.377 97.126 141.909H85.0673C85.1591 143.396 85.6638 144.561 86.5815 145.406C87.5176 146.232 88.6464 146.644 89.9679 146.644C91.0508 146.644 91.9501 146.397 92.666 145.901C93.4001 145.387 93.914 144.708 94.2077 143.864H96.9058C96.502 145.314 95.6944 146.498 94.483 147.415C93.2717 148.315 91.7666 148.764 89.9679 148.764C88.5363 148.764 87.2515 148.443 86.1135 147.801C84.9939 147.158 84.1129 146.25 83.4705 145.075C82.8281 143.882 82.5069 142.506 82.5069 140.945C82.5069 139.385 82.8189 138.018 83.443 136.843C84.067 135.669 84.9388 134.769 86.0584 134.145C87.1964 133.503 88.4996 133.182 89.9679 133.182C91.3995 133.182 92.666 133.494 93.7672 134.118C94.8685 134.742 95.7128 135.604 96.3001 136.706C96.9058 137.789 97.2086 139.018 97.2086 140.395ZM94.6207 139.872C94.6207 138.917 94.4096 138.101 93.9875 137.421C93.5653 136.724 92.9872 136.201 92.253 135.852C91.5372 135.485 90.7388 135.302 89.8578 135.302C88.5913 135.302 87.5084 135.705 86.6091 136.513C85.7281 137.321 85.2233 138.44 85.0949 139.872H94.6207ZM118.659 133.154C119.833 133.154 120.88 133.402 121.797 133.897C122.715 134.375 123.44 135.1 123.972 136.072C124.505 137.045 124.771 138.229 124.771 139.624V148.517H122.293V139.982C122.293 138.477 121.917 137.33 121.164 136.54C120.43 135.733 119.43 135.329 118.163 135.329C116.86 135.329 115.823 135.751 115.052 136.596C114.281 137.421 113.896 138.624 113.896 140.202V148.517H111.418V139.982C111.418 138.477 111.042 137.33 110.289 136.54C109.555 135.733 108.555 135.329 107.288 135.329C105.985 135.329 104.948 135.751 104.177 136.596C103.406 137.421 103.021 138.624 103.021 140.202V148.517H100.516V133.429H103.021V135.604C103.517 134.815 104.177 134.209 105.003 133.787C105.848 133.365 106.774 133.154 107.784 133.154C109.05 133.154 110.17 133.439 111.143 134.008C112.115 134.577 112.84 135.412 113.318 136.513C113.74 135.448 114.437 134.622 115.41 134.035C116.383 133.448 117.466 133.154 118.659 133.154ZM130.174 130.979C129.697 130.979 129.293 130.814 128.963 130.484C128.633 130.153 128.467 129.749 128.467 129.272C128.467 128.795 128.633 128.391 128.963 128.061C129.293 127.73 129.697 127.565 130.174 127.565C130.633 127.565 131.019 127.73 131.331 128.061C131.661 128.391 131.826 128.795 131.826 129.272C131.826 129.749 131.661 130.153 131.331 130.484C131.019 130.814 130.633 130.979 130.174 130.979ZM131.386 133.429V148.517H128.88V133.429H131.386ZM149.036 133.429V148.517H146.531V146.287C146.053 147.057 145.383 147.663 144.521 148.104C143.676 148.526 142.74 148.737 141.713 148.737C140.538 148.737 139.483 148.498 138.546 148.021C137.61 147.525 136.867 146.791 136.316 145.819C135.784 144.846 135.518 143.662 135.518 142.267V133.429H137.996V141.937C137.996 143.423 138.372 144.57 139.125 145.378C139.877 146.167 140.905 146.562 142.208 146.562C143.548 146.562 144.603 146.149 145.374 145.323C146.145 144.497 146.531 143.295 146.531 141.716V133.429H149.036ZM171.409 133.154C172.584 133.154 173.63 133.402 174.548 133.897C175.465 134.375 176.19 135.1 176.723 136.072C177.255 137.045 177.521 138.229 177.521 139.624V148.517H175.043V139.982C175.043 138.477 174.667 137.33 173.915 136.54C173.18 135.733 172.18 135.329 170.914 135.329C169.61 135.329 168.573 135.751 167.803 136.596C167.032 137.421 166.646 138.624 166.646 140.202V148.517H164.168V139.982C164.168 138.477 163.792 137.33 163.04 136.54C162.305 135.733 161.305 135.329 160.039 135.329C158.736 135.329 157.699 135.751 156.928 136.596C156.157 137.421 155.771 138.624 155.771 140.202V148.517H153.266V133.429H155.771V135.604C156.267 134.815 156.928 134.209 157.754 133.787C158.598 133.365 159.525 133.154 160.534 133.154C161.801 133.154 162.92 133.439 163.893 134.008C164.866 134.577 165.591 135.412 166.068 136.513C166.49 135.448 167.188 134.622 168.16 134.035C169.133 133.448 170.216 133.154 171.409 133.154ZM89.5946 184.709C88.3282 184.709 87.1902 184.489 86.1807 184.049C85.1896 183.59 84.4095 182.966 83.8406 182.176C83.2716 181.369 82.9779 180.442 82.9596 179.396H85.6301C85.7219 180.295 86.089 181.057 86.7314 181.681C87.3921 182.287 88.3465 182.589 89.5946 182.589C90.7876 182.589 91.7237 182.296 92.4028 181.708C93.1003 181.103 93.449 180.332 93.449 179.396C93.449 178.662 93.2471 178.065 92.8433 177.606C92.4395 177.147 91.9348 176.799 91.3291 176.56C90.7234 176.321 89.9066 176.064 88.8788 175.789C87.6124 175.459 86.5937 175.128 85.8228 174.798C85.0703 174.468 84.4187 173.954 83.8681 173.256C83.3358 172.54 83.0697 171.586 83.0697 170.393C83.0697 169.347 83.3358 168.42 83.8681 167.612C84.4004 166.805 85.1437 166.181 86.0981 165.74C87.0709 165.3 88.1813 165.079 89.4294 165.079C91.2281 165.079 92.6965 165.529 93.8344 166.429C94.9907 167.328 95.6423 168.521 95.7892 170.008H93.036C92.9443 169.273 92.5588 168.631 91.8797 168.08C91.2006 167.511 90.3012 167.227 89.1816 167.227C88.1354 167.227 87.282 167.502 86.6212 168.053C85.9605 168.585 85.6301 169.338 85.6301 170.31C85.6301 171.008 85.8228 171.577 86.2083 172.017C86.6121 172.458 87.0984 172.797 87.6674 173.036C88.2548 173.256 89.0715 173.513 90.1177 173.807C91.3841 174.156 92.4028 174.504 93.1737 174.853C93.9446 175.183 94.6053 175.707 95.1559 176.422C95.7066 177.12 95.9819 178.074 95.9819 179.286C95.9819 180.222 95.7341 181.103 95.2385 181.929C94.743 182.755 94.0088 183.425 93.036 183.938C92.0632 184.452 90.9161 184.709 89.5946 184.709ZM98.7326 176.918C98.7326 175.376 99.0447 174.027 99.6687 172.871C100.293 171.696 101.146 170.788 102.229 170.145C103.33 169.503 104.551 169.182 105.891 169.182C107.212 169.182 108.359 169.466 109.332 170.035C110.305 170.604 111.03 171.32 111.507 172.183V169.429H114.04V184.517H111.507V181.708C111.012 182.589 110.268 183.324 109.277 183.911C108.304 184.48 107.166 184.764 105.863 184.764C104.523 184.764 103.312 184.434 102.229 183.773C101.146 183.113 100.293 182.186 99.6687 180.993C99.0447 179.8 98.7326 178.441 98.7326 176.918ZM111.507 176.945C111.507 175.808 111.278 174.816 110.819 173.972C110.36 173.128 109.736 172.485 108.947 172.045C108.176 171.586 107.322 171.357 106.386 171.357C105.45 171.357 104.597 171.577 103.826 172.017C103.055 172.458 102.44 173.1 101.981 173.945C101.522 174.789 101.293 175.78 101.293 176.918C101.293 178.074 101.522 179.084 101.981 179.946C102.44 180.791 103.055 181.442 103.826 181.901C104.597 182.342 105.45 182.562 106.386 182.562C107.322 182.562 108.176 182.342 108.947 181.901C109.736 181.442 110.36 180.791 110.819 179.946C111.278 179.084 111.507 178.083 111.507 176.945ZM120.779 171.88C121.22 171.017 121.844 170.347 122.651 169.87C123.477 169.393 124.478 169.154 125.652 169.154V171.742H124.991C122.183 171.742 120.779 173.265 120.779 176.312V184.517H118.274V169.429H120.779V171.88ZM142.31 176.395C142.31 176.872 142.282 177.377 142.227 177.909H130.169C130.26 179.396 130.765 180.561 131.683 181.406C132.619 182.232 133.748 182.644 135.069 182.644C136.152 182.644 137.051 182.397 137.767 181.901C138.501 181.387 139.015 180.708 139.309 179.864H142.007C141.603 181.314 140.796 182.498 139.584 183.415C138.373 184.315 136.868 184.764 135.069 184.764C133.638 184.764 132.353 184.443 131.215 183.801C130.095 183.158 129.214 182.25 128.572 181.075C127.929 179.882 127.608 178.506 127.608 176.945C127.608 175.385 127.92 174.018 128.544 172.843C129.168 171.669 130.04 170.769 131.16 170.145C132.298 169.503 133.601 169.182 135.069 169.182C136.501 169.182 137.767 169.494 138.869 170.118C139.97 170.742 140.814 171.604 141.401 172.706C142.007 173.789 142.31 175.018 142.31 176.395ZM139.722 175.872C139.722 174.917 139.511 174.101 139.089 173.421C138.667 172.724 138.089 172.201 137.354 171.852C136.639 171.485 135.84 171.302 134.959 171.302C133.693 171.302 132.61 171.705 131.71 172.513C130.829 173.321 130.325 174.44 130.196 175.872H139.722ZM159.383 176.395C159.383 176.872 159.355 177.377 159.3 177.909H147.241C147.333 179.396 147.838 180.561 148.756 181.406C149.692 182.232 150.82 182.644 152.142 182.644C153.225 182.644 154.124 182.397 154.84 181.901C155.574 181.387 156.088 180.708 156.382 179.864H159.08C158.676 181.314 157.868 182.498 156.657 183.415C155.446 184.315 153.941 184.764 152.142 184.764C150.71 184.764 149.425 184.443 148.287 183.801C147.168 183.158 146.287 182.25 145.644 181.075C145.002 179.882 144.681 178.506 144.681 176.945C144.681 175.385 144.993 174.018 145.617 172.843C146.241 171.669 147.113 170.769 148.232 170.145C149.37 169.503 150.674 169.182 152.142 169.182C153.574 169.182 154.84 169.494 155.941 170.118C157.042 170.742 157.887 171.604 158.474 172.706C159.08 173.789 159.383 175.018 159.383 176.395ZM156.795 175.872C156.795 174.917 156.584 174.101 156.161 173.421C155.739 172.724 155.161 172.201 154.427 171.852C153.711 171.485 152.913 171.302 152.032 171.302C150.765 171.302 149.682 171.705 148.783 172.513C147.902 173.321 147.397 174.44 147.269 175.872H156.795Z" fill="white"/>
<path d="M70.0587 134.944C70.0587 136.54 69.508 137.871 68.4068 138.936C67.3239 139.982 65.6628 140.505 63.4236 140.505H59.7344V148.517H57.2291V129.327H63.4236C65.5894 129.327 67.2321 129.85 68.3517 130.897C69.4897 131.943 70.0587 133.292 70.0587 134.944ZM63.4236 138.44C64.8185 138.44 65.8464 138.137 66.5071 137.532C67.1679 136.926 67.4983 136.063 67.4983 134.944C67.4983 132.576 66.14 131.392 63.4236 131.392H59.7344V138.44H63.4236ZM75.6779 135.88C76.1184 135.017 76.7424 134.347 77.55 133.87C78.3759 133.393 79.3762 133.154 80.5509 133.154V135.742H79.8901C77.082 135.742 75.6779 137.265 75.6779 140.312V148.517H73.1725V133.429H75.6779V135.88ZM97.2086 140.395C97.2086 140.872 97.1811 141.377 97.126 141.909H85.0673C85.1591 143.396 85.6638 144.561 86.5815 145.406C87.5176 146.232 88.6464 146.644 89.9679 146.644C91.0508 146.644 91.9501 146.397 92.666 145.901C93.4001 145.387 93.914 144.708 94.2077 143.864H96.9058C96.502 145.314 95.6944 146.498 94.483 147.415C93.2717 148.315 91.7666 148.764 89.9679 148.764C88.5363 148.764 87.2515 148.443 86.1135 147.801C84.9939 147.158 84.1129 146.25 83.4705 145.075C82.8281 143.882 82.5069 142.506 82.5069 140.945C82.5069 139.385 82.8189 138.018 83.443 136.843C84.067 135.669 84.9388 134.769 86.0584 134.145C87.1964 133.503 88.4996 133.182 89.9679 133.182C91.3995 133.182 92.666 133.494 93.7672 134.118C94.8685 134.742 95.7128 135.604 96.3001 136.706C96.9058 137.789 97.2086 139.018 97.2086 140.395ZM94.6207 139.872C94.6207 138.917 94.4096 138.101 93.9875 137.421C93.5653 136.724 92.9872 136.201 92.253 135.852C91.5372 135.485 90.7388 135.302 89.8578 135.302C88.5913 135.302 87.5084 135.705 86.6091 136.513C85.7281 137.321 85.2233 138.44 85.0949 139.872H94.6207ZM118.659 133.154C119.833 133.154 120.88 133.402 121.797 133.897C122.715 134.375 123.44 135.1 123.972 136.072C124.505 137.045 124.771 138.229 124.771 139.624V148.517H122.293V139.982C122.293 138.477 121.917 137.33 121.164 136.54C120.43 135.733 119.43 135.329 118.163 135.329C116.86 135.329 115.823 135.751 115.052 136.596C114.281 137.421 113.896 138.624 113.896 140.202V148.517H111.418V139.982C111.418 138.477 111.042 137.33 110.289 136.54C109.555 135.733 108.555 135.329 107.288 135.329C105.985 135.329 104.948 135.751 104.177 136.596C103.406 137.421 103.021 138.624 103.021 140.202V148.517H100.516V133.429H103.021V135.604C103.517 134.815 104.177 134.209 105.003 133.787C105.848 133.365 106.774 133.154 107.784 133.154C109.05 133.154 110.17 133.439 111.143 134.008C112.115 134.577 112.84 135.412 113.318 136.513C113.74 135.448 114.437 134.622 115.41 134.035C116.383 133.448 117.466 133.154 118.659 133.154ZM130.174 130.979C129.697 130.979 129.293 130.814 128.963 130.484C128.633 130.153 128.467 129.749 128.467 129.272C128.467 128.795 128.633 128.391 128.963 128.061C129.293 127.73 129.697 127.565 130.174 127.565C130.633 127.565 131.019 127.73 131.331 128.061C131.661 128.391 131.826 128.795 131.826 129.272C131.826 129.749 131.661 130.153 131.331 130.484C131.019 130.814 130.633 130.979 130.174 130.979ZM131.386 133.429V148.517H128.88V133.429H131.386ZM149.036 133.429V148.517H146.531V146.287C146.053 147.057 145.383 147.663 144.521 148.104C143.676 148.526 142.74 148.737 141.713 148.737C140.538 148.737 139.483 148.498 138.546 148.021C137.61 147.525 136.867 146.791 136.316 145.819C135.784 144.846 135.518 143.662 135.518 142.267V133.429H137.996V141.937C137.996 143.423 138.372 144.57 139.125 145.378C139.877 146.167 140.905 146.562 142.208 146.562C143.548 146.562 144.603 146.149 145.374 145.323C146.145 144.497 146.531 143.295 146.531 141.716V133.429H149.036ZM171.409 133.154C172.584 133.154 173.63 133.402 174.548 133.897C175.465 134.375 176.19 135.1 176.723 136.072C177.255 137.045 177.521 138.229 177.521 139.624V148.517H175.043V139.982C175.043 138.477 174.667 137.33 173.915 136.54C173.18 135.733 172.18 135.329 170.914 135.329C169.61 135.329 168.573 135.751 167.803 136.596C167.032 137.421 166.646 138.624 166.646 140.202V148.517H164.168V139.982C164.168 138.477 163.792 137.33 163.04 136.54C162.305 135.733 161.305 135.329 160.039 135.329C158.736 135.329 157.699 135.751 156.928 136.596C156.157 137.421 155.771 138.624 155.771 140.202V148.517H153.266V133.429H155.771V135.604C156.267 134.815 156.928 134.209 157.754 133.787C158.598 133.365 159.525 133.154 160.534 133.154C161.801 133.154 162.92 133.439 163.893 134.008C164.866 134.577 165.591 135.412 166.068 136.513C166.49 135.448 167.188 134.622 168.16 134.035C169.133 133.448 170.216 133.154 171.409 133.154ZM89.5946 184.709C88.3282 184.709 87.1902 184.489 86.1807 184.049C85.1896 183.59 84.4095 182.966 83.8406 182.176C83.2716 181.369 82.9779 180.442 82.9596 179.396H85.6301C85.7219 180.295 86.089 181.057 86.7314 181.681C87.3921 182.287 88.3465 182.589 89.5946 182.589C90.7876 182.589 91.7237 182.296 92.4028 181.708C93.1003 181.103 93.449 180.332 93.449 179.396C93.449 178.662 93.2471 178.065 92.8433 177.606C92.4395 177.147 91.9348 176.799 91.3291 176.56C90.7234 176.321 89.9066 176.064 88.8788 175.789C87.6124 175.459 86.5937 175.128 85.8228 174.798C85.0703 174.468 84.4187 173.954 83.8681 173.256C83.3358 172.54 83.0697 171.586 83.0697 170.393C83.0697 169.347 83.3358 168.42 83.8681 167.612C84.4004 166.805 85.1437 166.181 86.0981 165.74C87.0709 165.3 88.1813 165.079 89.4294 165.079C91.2281 165.079 92.6965 165.529 93.8344 166.429C94.9907 167.328 95.6423 168.521 95.7892 170.008H93.036C92.9443 169.273 92.5588 168.631 91.8797 168.08C91.2006 167.511 90.3012 167.227 89.1816 167.227C88.1354 167.227 87.282 167.502 86.6212 168.053C85.9605 168.585 85.6301 169.338 85.6301 170.31C85.6301 171.008 85.8228 171.577 86.2083 172.017C86.6121 172.458 87.0984 172.797 87.6674 173.036C88.2548 173.256 89.0715 173.513 90.1177 173.807C91.3841 174.156 92.4028 174.504 93.1737 174.853C93.9446 175.183 94.6053 175.707 95.1559 176.422C95.7066 177.12 95.9819 178.074 95.9819 179.286C95.9819 180.222 95.7341 181.103 95.2385 181.929C94.743 182.755 94.0088 183.425 93.036 183.938C92.0632 184.452 90.9161 184.709 89.5946 184.709ZM98.7326 176.918C98.7326 175.376 99.0447 174.027 99.6687 172.871C100.293 171.696 101.146 170.788 102.229 170.145C103.33 169.503 104.551 169.182 105.891 169.182C107.212 169.182 108.359 169.466 109.332 170.035C110.305 170.604 111.03 171.32 111.507 172.183V169.429H114.04V184.517H111.507V181.708C111.012 182.589 110.268 183.324 109.277 183.911C108.304 184.48 107.166 184.764 105.863 184.764C104.523 184.764 103.312 184.434 102.229 183.773C101.146 183.113 100.293 182.186 99.6687 180.993C99.0447 179.8 98.7326 178.441 98.7326 176.918ZM111.507 176.945C111.507 175.808 111.278 174.816 110.819 173.972C110.36 173.128 109.736 172.485 108.947 172.045C108.176 171.586 107.322 171.357 106.386 171.357C105.45 171.357 104.597 171.577 103.826 172.017C103.055 172.458 102.44 173.1 101.981 173.945C101.522 174.789 101.293 175.78 101.293 176.918C101.293 178.074 101.522 179.084 101.981 179.946C102.44 180.791 103.055 181.442 103.826 181.901C104.597 182.342 105.45 182.562 106.386 182.562C107.322 182.562 108.176 182.342 108.947 181.901C109.736 181.442 110.36 180.791 110.819 179.946C111.278 179.084 111.507 178.083 111.507 176.945ZM120.779 171.88C121.22 171.017 121.844 170.347 122.651 169.87C123.477 169.393 124.478 169.154 125.652 169.154V171.742H124.991C122.183 171.742 120.779 173.265 120.779 176.312V184.517H118.274V169.429H120.779V171.88ZM142.31 176.395C142.31 176.872 142.282 177.377 142.227 177.909H130.169C130.26 179.396 130.765 180.561 131.683 181.406C132.619 182.232 133.748 182.644 135.069 182.644C136.152 182.644 137.051 182.397 137.767 181.901C138.501 181.387 139.015 180.708 139.309 179.864H142.007C141.603 181.314 140.796 182.498 139.584 183.415C138.373 184.315 136.868 184.764 135.069 184.764C133.638 184.764 132.353 184.443 131.215 183.801C130.095 183.158 129.214 182.25 128.572 181.075C127.929 179.882 127.608 178.506 127.608 176.945C127.608 175.385 127.92 174.018 128.544 172.843C129.168 171.669 130.04 170.769 131.16 170.145C132.298 169.503 133.601 169.182 135.069 169.182C136.501 169.182 137.767 169.494 138.869 170.118C139.97 170.742 140.814 171.604 141.401 172.706C142.007 173.789 142.31 175.018 142.31 176.395ZM139.722 175.872C139.722 174.917 139.511 174.101 139.089 173.421C138.667 172.724 138.089 172.201 137.354 171.852C136.639 171.485 135.84 171.302 134.959 171.302C133.693 171.302 132.61 171.705 131.71 172.513C130.829 173.321 130.325 174.44 130.196 175.872H139.722ZM159.383 176.395C159.383 176.872 159.355 177.377 159.3 177.909H147.241C147.333 179.396 147.838 180.561 148.756 181.406C149.692 182.232 150.82 182.644 152.142 182.644C153.225 182.644 154.124 182.397 154.84 181.901C155.574 181.387 156.088 180.708 156.382 179.864H159.08C158.676 181.314 157.868 182.498 156.657 183.415C155.446 184.315 153.941 184.764 152.142 184.764C150.71 184.764 149.425 184.443 148.287 183.801C147.168 183.158 146.287 182.25 145.644 181.075C145.002 179.882 144.681 178.506 144.681 176.945C144.681 175.385 144.993 174.018 145.617 172.843C146.241 171.669 147.113 170.769 148.232 170.145C149.37 169.503 150.674 169.182 152.142 169.182C153.574 169.182 154.84 169.494 155.941 170.118C157.042 170.742 157.887 171.604 158.474 172.706C159.08 173.789 159.383 175.018 159.383 176.395ZM156.795 175.872C156.795 174.917 156.584 174.101 156.161 173.421C155.739 172.724 155.161 172.201 154.427 171.852C153.711 171.485 152.913 171.302 152.032 171.302C150.765 171.302 149.682 171.705 148.783 172.513C147.902 173.321 147.397 174.44 147.269 175.872H156.795Z" fill="url(#paint2_linear_6867_3218)"/>
<defs>
<linearGradient id="paint0_linear_6867_3218" x1="66.6679" y1="54.33" x2="163.242" y2="60.1598" gradientUnits="userSpaceOnUse">
<stop stop-color="#D3A74D"/>
<stop offset="0.5" stop-color="#FADF80"/>
<stop offset="1" stop-color="#C29027"/>
</linearGradient>
<linearGradient id="paint1_linear_6867_3218" x1="97.3396" y1="63.4259" x2="139.351" y2="66.1581" gradientUnits="userSpaceOnUse">
<stop stop-color="#D3A74D"/>
<stop offset="0.5" stop-color="#FADF80"/>
<stop offset="1" stop-color="#C29027"/>
</linearGradient>
<linearGradient id="paint2_linear_6867_3218" x1="-597.844" y1="158.225" x2="2719.04" y2="158.225" gradientUnits="userSpaceOnUse">
<stop stop-color="#FFF0A4"/>
<stop offset="0.5" stop-color="#FADF80"/>
<stop offset="1" stop-color="#F1AE22"/>
</linearGradient>
<clipPath id="clip0_6867_3218">
<rect width="62.0921" height="62.0921" fill="white" transform="translate(89.9336 23.2842)"/>
</clipPath>
</defs>
</svg>
