<svg width="240" height="194" viewBox="0 0 240 194" fill="none" xmlns="http://www.w3.org/2000/svg">
<circle cx="119.99" cy="54.3306" r="54.3306" fill="url(#paint0_linear_6867_3211)"/>
<g clip-path="url(#clip0_6867_3211)">
<path d="M119.727 22C101.752 22 87.0005 36.7512 87.0005 54.7266C87.0005 72.7019 101.752 87.4531 119.727 87.4531C137.702 87.4531 152.454 72.7019 152.454 54.7266C152.454 36.7512 137.702 22 119.727 22ZM134.642 37.0995C135.391 36.3506 136.605 36.3506 137.354 37.0995C138.103 37.8483 138.103 39.0624 137.354 39.8113C136.605 40.5602 135.391 40.5602 134.642 39.8113C133.893 39.0624 133.893 37.8483 134.642 37.0995ZM117.809 31.7157C117.809 30.6558 118.667 29.7981 119.727 29.7981C120.787 29.7981 121.645 30.6558 121.645 31.7157V35.5508C121.645 36.6107 120.787 37.4684 119.727 37.4684C118.667 37.4684 117.809 36.6107 117.809 35.5508V31.7157ZM96.7162 56.6441C95.6563 56.6441 94.7986 55.7865 94.7986 54.7266C94.7986 53.6667 95.6563 52.809 96.7162 52.809H100.551C101.611 52.809 102.469 53.6667 102.469 54.7266C102.469 55.7865 101.611 56.6441 100.551 56.6441H96.7162ZM104.812 72.3536C104.063 73.1025 102.849 73.1025 102.1 72.3536C101.351 71.6048 101.351 70.3907 102.1 69.6418C102.849 68.8928 104.063 68.8928 104.812 69.6418C105.561 70.3907 105.561 71.6048 104.812 72.3536ZM104.812 39.8113C104.063 40.5602 102.849 40.5602 102.1 39.8113C101.351 39.0624 101.351 37.8483 102.1 37.0995C102.849 36.3506 104.063 36.3506 104.812 37.0995C105.561 37.8483 105.561 39.0624 104.812 39.8113ZM121.645 77.7374C121.645 78.7973 120.787 79.655 119.727 79.655C118.667 79.655 117.809 78.7973 117.809 77.7374V73.9023C117.809 72.8424 118.667 71.9847 119.727 71.9847C120.787 71.9847 121.645 72.8424 121.645 73.9023V77.7374ZM132.588 67.5877C131.839 68.3367 130.626 68.3367 129.877 67.5877L118.371 56.0823C118.193 55.9043 118.052 55.6929 117.955 55.4603C117.859 55.2277 117.809 54.9784 117.809 54.7266V43.2211C117.809 42.1612 118.667 41.3036 119.727 41.3036C120.787 41.3036 121.645 42.1612 121.645 43.2211V53.9326L132.588 64.8761C133.337 65.6253 133.337 66.8387 132.588 67.5877ZM137.354 72.3536C136.605 73.1025 135.391 73.1025 134.642 72.3536C133.893 71.6048 133.893 70.3907 134.642 69.6418C135.391 68.8928 136.605 68.8928 137.354 69.6418C138.103 70.3907 138.103 71.6048 137.354 72.3536ZM144.655 54.7266C144.655 55.7865 143.798 56.6441 142.738 56.6441H138.903C137.843 56.6441 136.985 55.7865 136.985 54.7266C136.985 53.6667 137.843 52.809 138.903 52.809H142.738C143.798 52.809 144.655 53.6667 144.655 54.7266Z" fill="#033431"/>
</g>
<path d="M38.3382 131.365V137.779H45.3311V139.844H38.3382V146.452H46.1571V148.517H35.8328V129.3H46.1571V131.365H38.3382ZM55.5644 146.204L60.2447 133.429H62.9152L56.996 148.517H54.0777L48.1585 133.429H50.8565L55.5644 146.204ZM79.1462 140.395C79.1462 140.872 79.1187 141.377 79.0636 141.909H67.0049C67.0967 143.396 67.6014 144.561 68.5192 145.406C69.4552 146.232 70.584 146.644 71.9055 146.644C72.9884 146.644 73.8878 146.397 74.6036 145.901C75.3377 145.387 75.8517 144.708 76.1453 143.864H78.8434C78.4396 145.314 77.632 146.498 76.4206 147.415C75.2093 148.315 73.7042 148.764 71.9055 148.764C70.4739 148.764 69.1891 148.443 68.0511 147.801C66.9315 147.158 66.0505 146.25 65.4081 145.075C64.7657 143.882 64.4445 142.506 64.4445 140.945C64.4445 139.385 64.7565 138.018 65.3806 136.843C66.0046 135.669 66.8765 134.769 67.9961 134.145C69.134 133.503 70.4372 133.182 71.9055 133.182C73.3371 133.182 74.6036 133.494 75.7048 134.118C76.8061 134.742 77.6504 135.604 78.2377 136.706C78.8434 137.789 79.1462 139.018 79.1462 140.395ZM76.5583 139.872C76.5583 138.917 76.3472 138.101 75.9251 137.421C75.5029 136.724 74.9248 136.201 74.1906 135.852C73.4748 135.485 72.6764 135.302 71.7954 135.302C70.5289 135.302 69.446 135.705 68.5467 136.513C67.6657 137.321 67.1609 138.44 67.0325 139.872H76.5583ZM84.9586 135.88C85.3991 135.017 86.0231 134.347 86.8307 133.87C87.6566 133.393 88.657 133.154 89.8316 133.154V135.742H89.1709C86.3627 135.742 84.9586 137.265 84.9586 140.312V148.517H82.4532V133.429H84.9586V135.88ZM105.718 133.429L96.6331 155.62H94.0452L97.0186 148.351L90.9342 133.429H93.7148L98.4502 145.653L103.131 133.429H105.718ZM135.041 129.465V148.517H132.536V134.31L126.204 148.517H124.442L118.082 134.283V148.517H115.577V129.465H118.275L125.323 145.213L132.371 129.465H135.041ZM140.584 130.979C140.107 130.979 139.703 130.814 139.373 130.484C139.043 130.153 138.877 129.749 138.877 129.272C138.877 128.795 139.043 128.391 139.373 128.061C139.703 127.73 140.107 127.565 140.584 127.565C141.043 127.565 141.429 127.73 141.741 128.061C142.071 128.391 142.236 128.795 142.236 129.272C142.236 129.749 142.071 130.153 141.741 130.484C141.429 130.814 141.043 130.979 140.584 130.979ZM141.796 133.429V148.517H139.29V133.429H141.796ZM153.416 133.154C155.252 133.154 156.739 133.714 157.877 134.834C159.015 135.935 159.583 137.532 159.583 139.624V148.517H157.106V139.982C157.106 138.477 156.729 137.33 155.977 136.54C155.224 135.733 154.197 135.329 152.893 135.329C151.572 135.329 150.517 135.742 149.727 136.568C148.956 137.394 148.571 138.596 148.571 140.175V148.517H146.066V133.429H148.571V135.577C149.067 134.806 149.736 134.209 150.581 133.787C151.443 133.365 152.389 133.154 153.416 133.154ZM177.056 133.429V148.517H174.551V146.287C174.074 147.057 173.404 147.663 172.541 148.104C171.697 148.526 170.761 148.737 169.733 148.737C168.558 148.737 167.503 148.498 166.567 148.021C165.631 147.525 164.887 146.791 164.337 145.819C163.804 144.846 163.538 143.662 163.538 142.267V133.429H166.016V141.937C166.016 143.423 166.392 144.57 167.145 145.378C167.897 146.167 168.925 146.562 170.228 146.562C171.568 146.562 172.624 146.149 173.395 145.323C174.165 144.497 174.551 143.295 174.551 141.716V133.429H177.056ZM184.342 135.494V144.387C184.342 145.121 184.498 145.644 184.81 145.956C185.122 146.25 185.664 146.397 186.435 146.397H188.279V148.517H186.022C184.627 148.517 183.581 148.195 182.883 147.553C182.186 146.911 181.837 145.855 181.837 144.387V135.494H179.882V133.429H181.837V129.63H184.342V133.429H188.279V135.494H184.342ZM205.08 140.395C205.08 140.872 205.053 141.377 204.998 141.909H192.939C193.031 143.396 193.536 144.561 194.453 145.406C195.389 146.232 196.518 146.644 197.84 146.644C198.923 146.644 199.822 146.397 200.538 145.901C201.272 145.387 201.786 144.708 202.08 143.864H204.778C204.374 145.314 203.566 146.498 202.355 147.415C201.144 148.315 199.638 148.764 197.84 148.764C196.408 148.764 195.123 148.443 193.985 147.801C192.866 147.158 191.985 146.25 191.342 145.075C190.7 143.882 190.379 142.506 190.379 140.945C190.379 139.385 190.691 138.018 191.315 136.843C191.939 135.669 192.811 134.769 193.93 134.145C195.068 133.503 196.371 133.182 197.84 133.182C199.271 133.182 200.538 133.494 201.639 134.118C202.74 134.742 203.585 135.604 204.172 136.706C204.778 137.789 205.08 139.018 205.08 140.395ZM202.493 139.872C202.493 138.917 202.281 138.101 201.859 137.421C201.437 136.724 200.859 136.201 200.125 135.852C199.409 135.485 198.611 135.302 197.73 135.302C196.463 135.302 195.38 135.705 194.481 136.513C193.6 137.321 193.095 138.44 192.967 139.872H202.493ZM57.0634 184.517H54.5581L44.4816 169.237V184.517H41.9763V165.3H44.4816L54.5581 180.552V165.3H57.0634V184.517ZM75.0999 176.395C75.0999 176.872 75.0724 177.377 75.0173 177.909H62.9586C63.0504 179.396 63.5551 180.561 64.4728 181.406C65.4089 182.232 66.5377 182.644 67.8592 182.644C68.9421 182.644 69.8414 182.397 70.5572 181.901C71.2914 181.387 71.8053 180.708 72.099 179.864H74.7971C74.3933 181.314 73.5857 182.498 72.3743 183.415C71.1629 184.315 69.6579 184.764 67.8592 184.764C66.4275 184.764 65.1427 184.443 64.0048 183.801C62.8852 183.158 62.0042 182.25 61.3618 181.075C60.7194 179.882 60.3982 178.506 60.3982 176.945C60.3982 175.385 60.7102 174.018 61.3342 172.843C61.9583 171.669 62.8301 170.769 63.9497 170.145C65.0877 169.503 66.3908 169.182 67.8592 169.182C69.2908 169.182 70.5572 169.494 71.6585 170.118C72.7597 170.742 73.604 171.604 74.1914 172.706C74.7971 173.789 75.0999 175.018 75.0999 176.395ZM72.512 175.872C72.512 174.917 72.3009 174.101 71.8787 173.421C71.4566 172.724 70.8784 172.201 70.1443 171.852C69.4284 171.485 68.63 171.302 67.749 171.302C66.4826 171.302 65.3997 171.705 64.5003 172.513C63.6193 173.321 63.1146 174.44 62.9861 175.872H72.512ZM98.5047 169.429L93.7969 184.517H91.2089L87.5748 172.54L83.9407 184.517H81.3527L76.6173 169.429H79.1778L82.6467 182.094L86.391 169.429H88.9514L92.613 182.121L96.0269 169.429H98.5047ZM114.305 165.327C116.398 165.327 118.206 165.722 119.729 166.511C121.271 167.282 122.445 168.392 123.253 169.842C124.079 171.292 124.492 172.999 124.492 174.963C124.492 176.927 124.079 178.634 123.253 180.084C122.445 181.516 121.271 182.617 119.729 183.388C118.206 184.14 116.398 184.517 114.305 184.517H108.331V165.327H114.305ZM114.305 182.452C116.783 182.452 118.674 181.8 119.977 180.497C121.28 179.176 121.932 177.331 121.932 174.963C121.932 172.577 121.271 170.714 119.949 169.374C118.646 168.035 116.765 167.365 114.305 167.365H110.836V182.452H114.305ZM141.562 176.395C141.562 176.872 141.535 177.377 141.48 177.909H129.421C129.513 179.396 130.017 180.561 130.935 181.406C131.871 182.232 133 182.644 134.321 182.644C135.404 182.644 136.304 182.397 137.02 181.901C137.754 181.387 138.268 180.708 138.561 179.864H141.259C140.856 181.314 140.048 182.498 138.837 183.415C137.625 184.315 136.12 184.764 134.321 184.764C132.89 184.764 131.605 184.443 130.467 183.801C129.347 183.158 128.466 182.25 127.824 181.075C127.182 179.882 126.86 178.506 126.86 176.945C126.86 175.385 127.173 174.018 127.797 172.843C128.421 171.669 129.292 170.769 130.412 170.145C131.55 169.503 132.853 169.182 134.321 169.182C135.753 169.182 137.02 169.494 138.121 170.118C139.222 170.742 140.066 171.604 140.654 172.706C141.259 173.789 141.562 175.018 141.562 176.395ZM138.974 175.872C138.974 174.917 138.763 174.101 138.341 173.421C137.919 172.724 137.341 172.201 136.607 171.852C135.891 171.485 135.092 171.302 134.211 171.302C132.945 171.302 131.862 171.705 130.963 172.513C130.082 173.321 129.577 174.44 129.448 175.872H138.974ZM150.21 184.764C149.054 184.764 148.017 184.572 147.099 184.186C146.182 183.782 145.457 183.232 144.924 182.534C144.392 181.819 144.098 181.002 144.043 180.084H146.631C146.705 180.837 147.053 181.451 147.677 181.929C148.32 182.406 149.155 182.644 150.183 182.644C151.137 182.644 151.89 182.433 152.44 182.011C152.991 181.589 153.266 181.057 153.266 180.414C153.266 179.754 152.973 179.267 152.385 178.955C151.798 178.625 150.889 178.304 149.66 177.992C148.54 177.698 147.622 177.404 146.907 177.111C146.209 176.799 145.603 176.349 145.089 175.762C144.594 175.156 144.346 174.367 144.346 173.394C144.346 172.623 144.576 171.916 145.034 171.274C145.493 170.632 146.145 170.127 146.989 169.76C147.833 169.374 148.797 169.182 149.88 169.182C151.55 169.182 152.899 169.604 153.927 170.448C154.955 171.292 155.505 172.449 155.579 173.917H153.074C153.018 173.128 152.697 172.495 152.11 172.017C151.541 171.54 150.77 171.302 149.797 171.302C148.898 171.302 148.182 171.494 147.65 171.88C147.118 172.265 146.851 172.77 146.851 173.394C146.851 173.89 147.007 174.302 147.319 174.633C147.65 174.945 148.054 175.202 148.531 175.404C149.026 175.587 149.706 175.798 150.568 176.037C151.651 176.331 152.532 176.624 153.211 176.918C153.89 177.193 154.468 177.615 154.946 178.184C155.441 178.753 155.698 179.497 155.717 180.414C155.717 181.24 155.487 181.984 155.028 182.644C154.569 183.305 153.918 183.828 153.074 184.214C152.248 184.581 151.293 184.764 150.21 184.764ZM160.547 166.979C160.07 166.979 159.666 166.814 159.336 166.484C159.005 166.153 158.84 165.749 158.84 165.272C158.84 164.795 159.005 164.391 159.336 164.061C159.666 163.73 160.07 163.565 160.547 163.565C161.006 163.565 161.391 163.73 161.704 164.061C162.034 164.391 162.199 164.795 162.199 165.272C162.199 165.749 162.034 166.153 161.704 166.484C161.391 166.814 161.006 166.979 160.547 166.979ZM161.759 169.429V184.517H159.253V169.429H161.759ZM172.251 169.182C173.554 169.182 174.692 169.466 175.664 170.035C176.656 170.604 177.39 171.32 177.867 172.183V169.429H180.4V184.847C180.4 186.224 180.106 187.444 179.519 188.509C178.932 189.592 178.087 190.436 176.986 191.042C175.903 191.647 174.637 191.95 173.187 191.95C171.204 191.95 169.553 191.482 168.231 190.546C166.91 189.61 166.129 188.334 165.891 186.719H168.369C168.644 187.637 169.213 188.371 170.076 188.922C170.938 189.491 171.975 189.775 173.187 189.775C174.563 189.775 175.683 189.344 176.545 188.481C177.426 187.618 177.867 186.407 177.867 184.847V181.681C177.371 182.562 176.637 183.296 175.664 183.883C174.692 184.471 173.554 184.764 172.251 184.764C170.911 184.764 169.69 184.434 168.589 183.773C167.506 183.113 166.653 182.186 166.029 180.993C165.404 179.8 165.092 178.441 165.092 176.918C165.092 175.376 165.404 174.027 166.029 172.871C166.653 171.696 167.506 170.788 168.589 170.145C169.69 169.503 170.911 169.182 172.251 169.182ZM177.867 176.945C177.867 175.808 177.638 174.816 177.179 173.972C176.72 173.128 176.096 172.485 175.307 172.045C174.536 171.586 173.682 171.357 172.746 171.357C171.81 171.357 170.957 171.577 170.186 172.017C169.415 172.458 168.8 173.1 168.341 173.945C167.882 174.789 167.653 175.78 167.653 176.918C167.653 178.074 167.882 179.084 168.341 179.946C168.8 180.791 169.415 181.442 170.186 181.901C170.957 182.342 171.81 182.562 172.746 182.562C173.682 182.562 174.536 182.342 175.307 181.901C176.096 181.442 176.72 180.791 177.179 179.946C177.638 179.084 177.867 178.083 177.867 176.945ZM191.985 169.154C193.82 169.154 195.307 169.714 196.445 170.834C197.583 171.935 198.152 173.532 198.152 175.624V184.517H195.674V175.982C195.674 174.477 195.297 173.33 194.545 172.54C193.792 171.733 192.765 171.329 191.461 171.329C190.14 171.329 189.085 171.742 188.295 172.568C187.524 173.394 187.139 174.596 187.139 176.175V184.517H184.634V169.429H187.139V171.577C187.635 170.806 188.304 170.209 189.149 169.787C190.011 169.365 190.957 169.154 191.985 169.154Z" fill="white"/>
<path d="M38.3382 131.365V137.779H45.3311V139.844H38.3382V146.452H46.1571V148.517H35.8328V129.3H46.1571V131.365H38.3382ZM55.5644 146.204L60.2447 133.429H62.9152L56.996 148.517H54.0777L48.1585 133.429H50.8565L55.5644 146.204ZM79.1462 140.395C79.1462 140.872 79.1187 141.377 79.0636 141.909H67.0049C67.0967 143.396 67.6014 144.561 68.5192 145.406C69.4552 146.232 70.584 146.644 71.9055 146.644C72.9884 146.644 73.8878 146.397 74.6036 145.901C75.3377 145.387 75.8517 144.708 76.1453 143.864H78.8434C78.4396 145.314 77.632 146.498 76.4206 147.415C75.2093 148.315 73.7042 148.764 71.9055 148.764C70.4739 148.764 69.1891 148.443 68.0511 147.801C66.9315 147.158 66.0505 146.25 65.4081 145.075C64.7657 143.882 64.4445 142.506 64.4445 140.945C64.4445 139.385 64.7565 138.018 65.3806 136.843C66.0046 135.669 66.8765 134.769 67.9961 134.145C69.134 133.503 70.4372 133.182 71.9055 133.182C73.3371 133.182 74.6036 133.494 75.7048 134.118C76.8061 134.742 77.6504 135.604 78.2377 136.706C78.8434 137.789 79.1462 139.018 79.1462 140.395ZM76.5583 139.872C76.5583 138.917 76.3472 138.101 75.9251 137.421C75.5029 136.724 74.9248 136.201 74.1906 135.852C73.4748 135.485 72.6764 135.302 71.7954 135.302C70.5289 135.302 69.446 135.705 68.5467 136.513C67.6657 137.321 67.1609 138.44 67.0325 139.872H76.5583ZM84.9586 135.88C85.3991 135.017 86.0231 134.347 86.8307 133.87C87.6566 133.393 88.657 133.154 89.8316 133.154V135.742H89.1709C86.3627 135.742 84.9586 137.265 84.9586 140.312V148.517H82.4532V133.429H84.9586V135.88ZM105.718 133.429L96.6331 155.62H94.0452L97.0186 148.351L90.9342 133.429H93.7148L98.4502 145.653L103.131 133.429H105.718ZM135.041 129.465V148.517H132.536V134.31L126.204 148.517H124.442L118.082 134.283V148.517H115.577V129.465H118.275L125.323 145.213L132.371 129.465H135.041ZM140.584 130.979C140.107 130.979 139.703 130.814 139.373 130.484C139.043 130.153 138.877 129.749 138.877 129.272C138.877 128.795 139.043 128.391 139.373 128.061C139.703 127.73 140.107 127.565 140.584 127.565C141.043 127.565 141.429 127.73 141.741 128.061C142.071 128.391 142.236 128.795 142.236 129.272C142.236 129.749 142.071 130.153 141.741 130.484C141.429 130.814 141.043 130.979 140.584 130.979ZM141.796 133.429V148.517H139.29V133.429H141.796ZM153.416 133.154C155.252 133.154 156.739 133.714 157.877 134.834C159.015 135.935 159.583 137.532 159.583 139.624V148.517H157.106V139.982C157.106 138.477 156.729 137.33 155.977 136.54C155.224 135.733 154.197 135.329 152.893 135.329C151.572 135.329 150.517 135.742 149.727 136.568C148.956 137.394 148.571 138.596 148.571 140.175V148.517H146.066V133.429H148.571V135.577C149.067 134.806 149.736 134.209 150.581 133.787C151.443 133.365 152.389 133.154 153.416 133.154ZM177.056 133.429V148.517H174.551V146.287C174.074 147.057 173.404 147.663 172.541 148.104C171.697 148.526 170.761 148.737 169.733 148.737C168.558 148.737 167.503 148.498 166.567 148.021C165.631 147.525 164.887 146.791 164.337 145.819C163.804 144.846 163.538 143.662 163.538 142.267V133.429H166.016V141.937C166.016 143.423 166.392 144.57 167.145 145.378C167.897 146.167 168.925 146.562 170.228 146.562C171.568 146.562 172.624 146.149 173.395 145.323C174.165 144.497 174.551 143.295 174.551 141.716V133.429H177.056ZM184.342 135.494V144.387C184.342 145.121 184.498 145.644 184.81 145.956C185.122 146.25 185.664 146.397 186.435 146.397H188.279V148.517H186.022C184.627 148.517 183.581 148.195 182.883 147.553C182.186 146.911 181.837 145.855 181.837 144.387V135.494H179.882V133.429H181.837V129.63H184.342V133.429H188.279V135.494H184.342ZM205.08 140.395C205.08 140.872 205.053 141.377 204.998 141.909H192.939C193.031 143.396 193.536 144.561 194.453 145.406C195.389 146.232 196.518 146.644 197.84 146.644C198.923 146.644 199.822 146.397 200.538 145.901C201.272 145.387 201.786 144.708 202.08 143.864H204.778C204.374 145.314 203.566 146.498 202.355 147.415C201.144 148.315 199.638 148.764 197.84 148.764C196.408 148.764 195.123 148.443 193.985 147.801C192.866 147.158 191.985 146.25 191.342 145.075C190.7 143.882 190.379 142.506 190.379 140.945C190.379 139.385 190.691 138.018 191.315 136.843C191.939 135.669 192.811 134.769 193.93 134.145C195.068 133.503 196.371 133.182 197.84 133.182C199.271 133.182 200.538 133.494 201.639 134.118C202.74 134.742 203.585 135.604 204.172 136.706C204.778 137.789 205.08 139.018 205.08 140.395ZM202.493 139.872C202.493 138.917 202.281 138.101 201.859 137.421C201.437 136.724 200.859 136.201 200.125 135.852C199.409 135.485 198.611 135.302 197.73 135.302C196.463 135.302 195.38 135.705 194.481 136.513C193.6 137.321 193.095 138.44 192.967 139.872H202.493ZM57.0634 184.517H54.5581L44.4816 169.237V184.517H41.9763V165.3H44.4816L54.5581 180.552V165.3H57.0634V184.517ZM75.0999 176.395C75.0999 176.872 75.0724 177.377 75.0173 177.909H62.9586C63.0504 179.396 63.5551 180.561 64.4728 181.406C65.4089 182.232 66.5377 182.644 67.8592 182.644C68.9421 182.644 69.8414 182.397 70.5572 181.901C71.2914 181.387 71.8053 180.708 72.099 179.864H74.7971C74.3933 181.314 73.5857 182.498 72.3743 183.415C71.1629 184.315 69.6579 184.764 67.8592 184.764C66.4275 184.764 65.1427 184.443 64.0048 183.801C62.8852 183.158 62.0042 182.25 61.3618 181.075C60.7194 179.882 60.3982 178.506 60.3982 176.945C60.3982 175.385 60.7102 174.018 61.3342 172.843C61.9583 171.669 62.8301 170.769 63.9497 170.145C65.0877 169.503 66.3908 169.182 67.8592 169.182C69.2908 169.182 70.5572 169.494 71.6585 170.118C72.7597 170.742 73.604 171.604 74.1914 172.706C74.7971 173.789 75.0999 175.018 75.0999 176.395ZM72.512 175.872C72.512 174.917 72.3009 174.101 71.8787 173.421C71.4566 172.724 70.8784 172.201 70.1443 171.852C69.4284 171.485 68.63 171.302 67.749 171.302C66.4826 171.302 65.3997 171.705 64.5003 172.513C63.6193 173.321 63.1146 174.44 62.9861 175.872H72.512ZM98.5047 169.429L93.7969 184.517H91.2089L87.5748 172.54L83.9407 184.517H81.3527L76.6173 169.429H79.1778L82.6467 182.094L86.391 169.429H88.9514L92.613 182.121L96.0269 169.429H98.5047ZM114.305 165.327C116.398 165.327 118.206 165.722 119.729 166.511C121.271 167.282 122.445 168.392 123.253 169.842C124.079 171.292 124.492 172.999 124.492 174.963C124.492 176.927 124.079 178.634 123.253 180.084C122.445 181.516 121.271 182.617 119.729 183.388C118.206 184.14 116.398 184.517 114.305 184.517H108.331V165.327H114.305ZM114.305 182.452C116.783 182.452 118.674 181.8 119.977 180.497C121.28 179.176 121.932 177.331 121.932 174.963C121.932 172.577 121.271 170.714 119.949 169.374C118.646 168.035 116.765 167.365 114.305 167.365H110.836V182.452H114.305ZM141.562 176.395C141.562 176.872 141.535 177.377 141.48 177.909H129.421C129.513 179.396 130.017 180.561 130.935 181.406C131.871 182.232 133 182.644 134.321 182.644C135.404 182.644 136.304 182.397 137.02 181.901C137.754 181.387 138.268 180.708 138.561 179.864H141.259C140.856 181.314 140.048 182.498 138.837 183.415C137.625 184.315 136.12 184.764 134.321 184.764C132.89 184.764 131.605 184.443 130.467 183.801C129.347 183.158 128.466 182.25 127.824 181.075C127.182 179.882 126.86 178.506 126.86 176.945C126.86 175.385 127.173 174.018 127.797 172.843C128.421 171.669 129.292 170.769 130.412 170.145C131.55 169.503 132.853 169.182 134.321 169.182C135.753 169.182 137.02 169.494 138.121 170.118C139.222 170.742 140.066 171.604 140.654 172.706C141.259 173.789 141.562 175.018 141.562 176.395ZM138.974 175.872C138.974 174.917 138.763 174.101 138.341 173.421C137.919 172.724 137.341 172.201 136.607 171.852C135.891 171.485 135.092 171.302 134.211 171.302C132.945 171.302 131.862 171.705 130.963 172.513C130.082 173.321 129.577 174.44 129.448 175.872H138.974ZM150.21 184.764C149.054 184.764 148.017 184.572 147.099 184.186C146.182 183.782 145.457 183.232 144.924 182.534C144.392 181.819 144.098 181.002 144.043 180.084H146.631C146.705 180.837 147.053 181.451 147.677 181.929C148.32 182.406 149.155 182.644 150.183 182.644C151.137 182.644 151.89 182.433 152.44 182.011C152.991 181.589 153.266 181.057 153.266 180.414C153.266 179.754 152.973 179.267 152.385 178.955C151.798 178.625 150.889 178.304 149.66 177.992C148.54 177.698 147.622 177.404 146.907 177.111C146.209 176.799 145.603 176.349 145.089 175.762C144.594 175.156 144.346 174.367 144.346 173.394C144.346 172.623 144.576 171.916 145.034 171.274C145.493 170.632 146.145 170.127 146.989 169.76C147.833 169.374 148.797 169.182 149.88 169.182C151.55 169.182 152.899 169.604 153.927 170.448C154.955 171.292 155.505 172.449 155.579 173.917H153.074C153.018 173.128 152.697 172.495 152.11 172.017C151.541 171.54 150.77 171.302 149.797 171.302C148.898 171.302 148.182 171.494 147.65 171.88C147.118 172.265 146.851 172.77 146.851 173.394C146.851 173.89 147.007 174.302 147.319 174.633C147.65 174.945 148.054 175.202 148.531 175.404C149.026 175.587 149.706 175.798 150.568 176.037C151.651 176.331 152.532 176.624 153.211 176.918C153.89 177.193 154.468 177.615 154.946 178.184C155.441 178.753 155.698 179.497 155.717 180.414C155.717 181.24 155.487 181.984 155.028 182.644C154.569 183.305 153.918 183.828 153.074 184.214C152.248 184.581 151.293 184.764 150.21 184.764ZM160.547 166.979C160.07 166.979 159.666 166.814 159.336 166.484C159.005 166.153 158.84 165.749 158.84 165.272C158.84 164.795 159.005 164.391 159.336 164.061C159.666 163.73 160.07 163.565 160.547 163.565C161.006 163.565 161.391 163.73 161.704 164.061C162.034 164.391 162.199 164.795 162.199 165.272C162.199 165.749 162.034 166.153 161.704 166.484C161.391 166.814 161.006 166.979 160.547 166.979ZM161.759 169.429V184.517H159.253V169.429H161.759ZM172.251 169.182C173.554 169.182 174.692 169.466 175.664 170.035C176.656 170.604 177.39 171.32 177.867 172.183V169.429H180.4V184.847C180.4 186.224 180.106 187.444 179.519 188.509C178.932 189.592 178.087 190.436 176.986 191.042C175.903 191.647 174.637 191.95 173.187 191.95C171.204 191.95 169.553 191.482 168.231 190.546C166.91 189.61 166.129 188.334 165.891 186.719H168.369C168.644 187.637 169.213 188.371 170.076 188.922C170.938 189.491 171.975 189.775 173.187 189.775C174.563 189.775 175.683 189.344 176.545 188.481C177.426 187.618 177.867 186.407 177.867 184.847V181.681C177.371 182.562 176.637 183.296 175.664 183.883C174.692 184.471 173.554 184.764 172.251 184.764C170.911 184.764 169.69 184.434 168.589 183.773C167.506 183.113 166.653 182.186 166.029 180.993C165.404 179.8 165.092 178.441 165.092 176.918C165.092 175.376 165.404 174.027 166.029 172.871C166.653 171.696 167.506 170.788 168.589 170.145C169.69 169.503 170.911 169.182 172.251 169.182ZM177.867 176.945C177.867 175.808 177.638 174.816 177.179 173.972C176.72 173.128 176.096 172.485 175.307 172.045C174.536 171.586 173.682 171.357 172.746 171.357C171.81 171.357 170.957 171.577 170.186 172.017C169.415 172.458 168.8 173.1 168.341 173.945C167.882 174.789 167.653 175.78 167.653 176.918C167.653 178.074 167.882 179.084 168.341 179.946C168.8 180.791 169.415 181.442 170.186 181.901C170.957 182.342 171.81 182.562 172.746 182.562C173.682 182.562 174.536 182.342 175.307 181.901C176.096 181.442 176.72 180.791 177.179 179.946C177.638 179.084 177.867 178.083 177.867 176.945ZM191.985 169.154C193.82 169.154 195.307 169.714 196.445 170.834C197.583 171.935 198.152 173.532 198.152 175.624V184.517H195.674V175.982C195.674 174.477 195.297 173.33 194.545 172.54C193.792 171.733 192.765 171.329 191.461 171.329C190.14 171.329 189.085 171.742 188.295 172.568C187.524 173.394 187.139 174.596 187.139 176.175V184.517H184.634V169.429H187.139V171.577C187.635 170.806 188.304 170.209 189.149 169.787C190.011 169.365 190.957 169.154 191.985 169.154Z" fill="url(#paint1_linear_6867_3211)"/>
<defs>
<linearGradient id="paint0_linear_6867_3211" x1="65.6782" y1="54.33" x2="162.252" y2="60.1598" gradientUnits="userSpaceOnUse">
<stop stop-color="#D3A74D"/>
<stop offset="0.5" stop-color="#FADF80"/>
<stop offset="1" stop-color="#C29027"/>
</linearGradient>
<linearGradient id="paint1_linear_6867_3211" x1="-822.104" y1="158.225" x2="3525.02" y2="158.225" gradientUnits="userSpaceOnUse">
<stop stop-color="#FFF0A4"/>
<stop offset="0.5" stop-color="#FADF80"/>
<stop offset="1" stop-color="#F1AE22"/>
</linearGradient>
<clipPath id="clip0_6867_3211">
<rect width="65.4531" height="65.4531" fill="white" transform="translate(87.0005 22)"/>
</clipPath>
</defs>
</svg>
